<?xml version="1.0" standalone="no"?>
<!DOCTYPE svg PUBLIC "-//W3C//DTD SVG 20010904//EN"
 "http://www.w3.org/TR/2001/REC-SVG-20010904/DTD/svg10.dtd">
<svg version="1.0" xmlns="http://www.w3.org/2000/svg"
 width="1024.000000pt" height="1024.000000pt" viewBox="0 0 1024.000000 1024.000000"
 preserveAspectRatio="xMidYMid meet">
<metadata>
Created by potrace 1.14, written by Peter Selinger 2001-2017
</metadata>
<g transform="translate(0.000000,1024.000000) scale(0.100000,-0.100000)"
fill="#000000" stroke="none">
<path d="M1368 8528 c-138 -13 -242 -63 -343 -163 -85 -85 -135 -174 -161
-290 -4 -16 -8 -1155 -9 -2530 -2 -2742 -6 -2557 60 -2690 43 -88 94 -150 168
-204 57 -43 177 -100 209 -101 9 0 19 -4 22 -8 3 -5 -41 -8 -97 -7 -132 1
-198 -9 -272 -44 -73 -33 -170 -121 -222 -199 -44 -66 -116 -211 -131 -262 -5
-19 -25 -73 -45 -120 -86 -212 -354 -865 -392 -960 -24 -58 -68 -168 -100
-244 -52 -128 -56 -144 -51 -195 7 -70 45 -184 81 -242 63 -103 178 -195 302
-242 l58 -22 4655 -2 c4039 -1 4662 0 4709 13 230 62 400 257 426 489 6 55 4
68 -35 165 -38 95 -55 136 -81 195 -5 11 -40 99 -79 195 -109 268 -171 422
-186 455 -7 17 -47 114 -88 217 -180 443 -250 574 -366 682 -104 95 -189 122
-384 121 l-128 -1 83 24 c197 56 357 227 402 427 11 49 13 498 12 2560 -1
1375 -6 2516 -10 2535 -35 166 -153 317 -308 393 -73 35 -92 41 -163 53 -52 9
-7449 11 -7536 2z m-11 -5994 c-3 -3 -12 -4 -19 -1 -8 3 -5 6 6 6 11 1 17 -2
13 -5z"/>
</g>
</svg>
