<?xml version="1.0" encoding="UTF-8"?>
<!-- Generator: Adobe Illustrator 23.0.1, SVG Export Plug-In . SVG Version: 6.00 Build 0)  -->
<svg version="1.1" id="Layer_1" xmlns="http://www.w3.org/2000/svg" xmlns:xlink="http://www.w3.org/1999/xlink" x="0px" y="0px" viewBox="0 0 41 42.8" style="enable-background:new 0 0 41 42.8;" xml:space="preserve">
<style type="text/css">
	.st0{clip-path:url(#SVGID_2_);fill:#FFFFFF;}
	.st1{clip-path:url(#SVGID_4_);}
	.st2{clip-path:url(#SVGID_6_);fill:#D0D6DA;}
	.st3{clip-path:url(#SVGID_8_);}
	.st4{clip-path:url(#SVGID_10_);fill:#E6E7E8;}
	.st5{clip-path:url(#SVGID_12_);}
	.st6{clip-path:url(#SVGID_14_);fill:#E1C92B;}
	.st7{clip-path:url(#SVGID_16_);}
	.st8{clip-path:url(#SVGID_18_);fill:#FDD537;}
	.st9{clip-path:url(#SVGID_20_);}
	.st10{clip-path:url(#SVGID_22_);fill:#CF6256;}
	.st11{clip-path:url(#SVGID_24_);}
	.st12{clip-path:url(#SVGID_26_);fill:#CF6256;}
	.st13{clip-path:url(#SVGID_28_);}
	.st14{clip-path:url(#SVGID_30_);fill:#EC6B58;}
	.st15{clip-path:url(#SVGID_32_);}
	.st16{clip-path:url(#SVGID_34_);fill:#5E4A90;}
	.st17{clip-path:url(#SVGID_36_);}
	.st18{clip-path:url(#SVGID_38_);fill:#6E5AA1;}
	.st19{clip-path:url(#SVGID_40_);}
	.st20{clip-path:url(#SVGID_42_);fill:#27ADD7;}
	.st21{clip-path:url(#SVGID_44_);}
	.st22{clip-path:url(#SVGID_46_);fill:#40B6E3;}
	.st23{clip-path:url(#SVGID_48_);}
	.st24{clip-path:url(#SVGID_50_);fill:#3BB98A;}
	.st25{clip-path:url(#SVGID_52_);}
	.st26{clip-path:url(#SVGID_54_);fill:#41CB98;}
</style>
<g>
	<defs>
		<rect id="SVGID_1_" x="-106.5" y="-814.8" width="760" height="427.5"/>
	</defs>
	<clipPath id="SVGID_2_">
		<use xlink:href="#SVGID_1_" style="overflow:visible;"/>
	</clipPath>
	<rect x="-106.5" y="-814.8" class="st0" width="760" height="427.5"/>
	<rect x="-106.5" y="-814.8" class="st0" width="760" height="427.5"/>
</g>
<g>
	<defs>
		<path id="SVGID_3_" d="M38.8,12.5l-5.5,9.7l-13.2-0.5l0.5-17.6l-0.2-1.5l0.8-1.3C28.9,1.5,35.6,6,38.8,12.5z"/>
	</defs>
	<clipPath id="SVGID_4_">
		<use xlink:href="#SVGID_3_" style="overflow:visible;"/>
	</clipPath>
	<g class="st1">
		<defs>
			<rect id="SVGID_5_" x="-201.9" y="-173.9" width="760" height="427.5"/>
		</defs>
		<clipPath id="SVGID_6_">
			<use xlink:href="#SVGID_5_" style="overflow:visible;"/>
		</clipPath>
		<rect x="17.2" y="-1.7" class="st2" width="24.6" height="26.9"/>
	</g>
</g>
<g>
	<defs>
		<path id="SVGID_7_" d="M37.6,10.3H26.6l0,0l-5.2-9.1C28.1,1.5,34,5.1,37.6,10.3z"/>
	</defs>
	<clipPath id="SVGID_8_">
		<use xlink:href="#SVGID_7_" style="overflow:visible;"/>
	</clipPath>
	<g class="st3">
		<defs>
			<rect id="SVGID_9_" x="-201.9" y="-173.9" width="760" height="427.5"/>
		</defs>
		<clipPath id="SVGID_10_">
			<use xlink:href="#SVGID_9_" style="overflow:visible;"/>
		</clipPath>
		<rect x="18.4" y="-1.7" class="st4" width="22.1" height="15"/>
	</g>
</g>
<g>
	<defs>
		<path id="SVGID_11_" d="M37,33.8H20.1V21.7h0.1l-0.1-0.1v0h12.9l0.1,0.1h6v8.4C38.6,31.4,37.9,32.7,37,33.8z"/>
	</defs>
	<clipPath id="SVGID_12_">
		<use xlink:href="#SVGID_11_" style="overflow:visible;"/>
	</clipPath>
	<g class="st5">
		<defs>
			<rect id="SVGID_13_" x="-201.9" y="-173.9" width="760" height="427.5"/>
		</defs>
		<clipPath id="SVGID_14_">
			<use xlink:href="#SVGID_13_" style="overflow:visible;"/>
		</clipPath>
		<rect x="17.2" y="18.6" class="st6" width="25" height="18.2"/>
	</g>
</g>
<g>
	<defs>
		<path id="SVGID_15_" d="M38.6,31.2l-5.6-9.6l5.5-9.5c1.5,2.9,2.4,6.2,2.4,9.7C41,25.1,40.2,28.4,38.6,31.2z"/>
	</defs>
	<clipPath id="SVGID_16_">
		<use xlink:href="#SVGID_15_" style="overflow:visible;"/>
	</clipPath>
	<g class="st7">
		<defs>
			<rect id="SVGID_17_" x="-201.9" y="-173.9" width="760" height="427.5"/>
		</defs>
		<clipPath id="SVGID_18_">
			<use xlink:href="#SVGID_17_" style="overflow:visible;"/>
		</clipPath>
		<rect x="30.1" y="9.1" class="st8" width="13.8" height="25.1"/>
	</g>
</g>
<g>
	<defs>
		<path id="SVGID_19_" d="M21.3,42.1c-0.3,0-0.5,0-0.8,0c-0.5,0-1,0-1.5-0.1l-5.3-9.3l6.5-11.2l6.5,11.2L21.3,42.1z"/>
	</defs>
	<clipPath id="SVGID_20_">
		<use xlink:href="#SVGID_19_" style="overflow:visible;"/>
	</clipPath>
	<g class="st9">
		<defs>
			<rect id="SVGID_21_" x="-201.9" y="-173.9" width="760" height="427.5"/>
		</defs>
		<clipPath id="SVGID_22_">
			<use xlink:href="#SVGID_21_" style="overflow:visible;"/>
		</clipPath>
		<rect x="10.7" y="18.6" class="st10" width="18.9" height="26.5"/>
	</g>
</g>
<g>
	<defs>
		<path id="SVGID_23_" d="M24,41.8c-1.1,0.2-2.3,0.3-3.5,0.3c-0.9,0-1.8-0.1-2.7-0.2l-4.1-6.9l7.2-12l7.2,12L24,41.8z"/>
	</defs>
	<clipPath id="SVGID_24_">
		<use xlink:href="#SVGID_23_" style="overflow:visible;"/>
	</clipPath>
	<g class="st11">
		<defs>
			<rect id="SVGID_25_" x="-201.9" y="-173.9" width="760" height="427.5"/>
		</defs>
		<clipPath id="SVGID_26_">
			<use xlink:href="#SVGID_25_" style="overflow:visible;"/>
		</clipPath>
		<rect x="10.7" y="20.1" class="st12" width="20.3" height="25"/>
	</g>
</g>
<g>
	<defs>
		<path id="SVGID_27_" d="M21.3,42.1l5.4-9.3h11.1C34.2,38.2,28.2,41.9,21.3,42.1z"/>
	</defs>
	<clipPath id="SVGID_28_">
		<use xlink:href="#SVGID_27_" style="overflow:visible;"/>
	</clipPath>
	<g class="st13">
		<defs>
			<rect id="SVGID_29_" x="-201.9" y="-173.9" width="760" height="427.5"/>
		</defs>
		<clipPath id="SVGID_30_">
			<use xlink:href="#SVGID_29_" style="overflow:visible;"/>
		</clipPath>
		<rect x="18.3" y="29.8" class="st14" width="22.4" height="15.2"/>
	</g>
</g>
<g>
	<defs>
		<path id="SVGID_31_" d="M2,30.6l5.2-9h0.4l0,0l0,0h12.5l0,0l-6.5,11.2l0,0l-0.5,0.7H3.8C3.1,32.6,2.5,31.6,2,30.6z"/>
	</defs>
	<clipPath id="SVGID_32_">
		<use xlink:href="#SVGID_31_" style="overflow:visible;"/>
	</clipPath>
	<g class="st15">
		<defs>
			<rect id="SVGID_33_" x="-201.9" y="-173.9" width="760" height="427.5"/>
		</defs>
		<clipPath id="SVGID_34_">
			<use xlink:href="#SVGID_33_" style="overflow:visible;"/>
		</clipPath>
		<rect x="-0.9" y="18.6" class="st16" width="24.1" height="17.9"/>
	</g>
</g>
<g>
	<defs>
		<path id="SVGID_35_" d="M19,42.1c-6.6-0.5-12.3-4-15.7-9.3l10.4,0l6.5-11.2l-6.5,11.2L19,42.1z"/>
	</defs>
	<clipPath id="SVGID_36_">
		<use xlink:href="#SVGID_35_" style="overflow:visible;"/>
	</clipPath>
	<g class="st17">
		<defs>
			<rect id="SVGID_37_" x="-201.9" y="-173.9" width="760" height="427.5"/>
		</defs>
		<clipPath id="SVGID_38_">
			<use xlink:href="#SVGID_37_" style="overflow:visible;"/>
		</clipPath>
		<rect x="0.3" y="18.6" class="st18" width="22.8" height="26.4"/>
	</g>
</g>
<g>
	<defs>
		<path id="SVGID_39_" d="M3.4,10.3h10.3l0,0h6.7l-0.3,11.2l-19.2,0l1.1-8.9C2.5,11.9,2.9,11.1,3.4,10.3z"/>
	</defs>
	<clipPath id="SVGID_40_">
		<use xlink:href="#SVGID_39_" style="overflow:visible;"/>
	</clipPath>
	<g class="st19">
		<defs>
			<rect id="SVGID_41_" x="-201.9" y="-173.9" width="760" height="427.5"/>
		</defs>
		<clipPath id="SVGID_42_">
			<use xlink:href="#SVGID_41_" style="overflow:visible;"/>
		</clipPath>
		<rect x="-2" y="7.4" class="st20" width="25.4" height="17.2"/>
	</g>
</g>
<g>
	<defs>
		<path id="SVGID_43_" d="M2,30.6c-1.3-2.7-2-5.7-2-8.9c0-3.2,0.8-6.3,2.1-9l5.1,8.9h12.9l-12.9,0L2,30.6z"/>
	</defs>
	<clipPath id="SVGID_44_">
		<use xlink:href="#SVGID_43_" style="overflow:visible;"/>
	</clipPath>
	<g class="st21">
		<defs>
			<rect id="SVGID_45_" x="-201.9" y="-173.9" width="760" height="427.5"/>
		</defs>
		<clipPath id="SVGID_46_">
			<use xlink:href="#SVGID_45_" style="overflow:visible;"/>
		</clipPath>
		<rect x="-3" y="9.7" class="st22" width="26.1" height="23.9"/>
	</g>
</g>
<g>
	<defs>
		<path id="SVGID_47_" d="M21.4,1.3l5.2,9.1l-6.5,11.2l-6.5-11.2h0l0,0h-0.1V2.4c2.2-0.8,4.5-1.2,6.9-1.2    C20.8,1.2,21.1,1.2,21.4,1.3z"/>
	</defs>
	<clipPath id="SVGID_48_">
		<use xlink:href="#SVGID_47_" style="overflow:visible;"/>
	</clipPath>
	<g class="st23">
		<defs>
			<rect id="SVGID_49_" x="-201.9" y="-173.9" width="760" height="427.5"/>
		</defs>
		<clipPath id="SVGID_50_">
			<use xlink:href="#SVGID_49_" style="overflow:visible;"/>
		</clipPath>
		<rect x="10.6" y="-1.7" class="st24" width="19" height="26.3"/>
	</g>
</g>
<g>
	<defs>
		<path id="SVGID_51_" d="M18.9,1.3l-5.2,9H3.4C6.8,5.3,12.4,1.8,18.9,1.3z"/>
	</defs>
	<clipPath id="SVGID_52_">
		<use xlink:href="#SVGID_51_" style="overflow:visible;"/>
	</clipPath>
	<g class="st25">
		<defs>
			<rect id="SVGID_53_" x="-201.9" y="-173.9" width="760" height="427.5"/>
		</defs>
		<clipPath id="SVGID_54_">
			<use xlink:href="#SVGID_53_" style="overflow:visible;"/>
		</clipPath>
		<rect x="0.5" y="-1.7" class="st26" width="21.4" height="15"/>
	</g>
</g>
</svg>