<?xml version="1.0" encoding="UTF-8"?>
<svg xmlns="http://www.w3.org/2000/svg" xmlns:xlink="http://www.w3.org/1999/xlink" viewBox="0 0 368 356">
  <defs>
    <linearGradient id="Dégradé_sans_nom_37" data-name="Dégradé sans nom 37" x1="363.9" y1="234.25" x2="9.5" y2="234.25" gradientUnits="userSpaceOnUse">
      <stop offset=".16" stop-color="#53d6e2"></stop>
      <stop offset=".36" stop-color="#457dcc"></stop>
      <stop offset=".5" stop-color="#2f00eb"></stop>
      <stop offset=".66" stop-color="#6400cb"></stop>
      <stop offset=".8" stop-color="#7500aa"></stop>
    </linearGradient>
    <linearGradient id="linear-gradient" x1="8094.16" y1="182.56" x2="8103.5" y2="166.9" gradientTransform="translate(-7819.27)" gradientUnits="userSpaceOnUse">
      <stop offset="0" stop-color="#fff"></stop>
      <stop offset="1" stop-color="#000"></stop>
    </linearGradient>
    <linearGradient id="Dégradé_sans_nom_28" data-name="Dégradé sans nom 28" x1="8036.86" y1="195.98" x2="8136.35" y2="195.98" gradientTransform="translate(-7819.27)" gradientUnits="userSpaceOnUse">
      <stop offset="0" stop-color="#53d6e2"></stop>
      <stop offset=".25" stop-color="#457dcc"></stop>
      <stop offset=".5" stop-color="#2f00eb"></stop>
      <stop offset=".75" stop-color="#6400cb"></stop>
      <stop offset="1" stop-color="#7500aa"></stop>
    </linearGradient>
    <linearGradient id="linear-gradient-2" x1="8032.29" y1="13.39" x2="8168.93" y2="218.85" gradientTransform="translate(-7819.27)" gradientUnits="userSpaceOnUse">
      <stop offset=".01" stop-color="#9f19ab"></stop>
      <stop offset=".43" stop-color="#5f27bd"></stop>
      <stop offset=".9" stop-color="#3d065f"></stop>
    </linearGradient>
    <linearGradient id="Dégradé_sans_nom_28-2" data-name="Dégradé sans nom 28" x1="206.57" y1="109.4" x2="346.9" y2="109.4" gradientTransform="matrix(1,0,0,1,0,0)" xlink:href="#Dégradé_sans_nom_28"></linearGradient>
    <linearGradient id="Dégradé_sans_nom_28-3" data-name="Dégradé sans nom 28" x1="8024.45" y1="109.14" x2="8173.49" y2="109.14" xlink:href="#Dégradé_sans_nom_28"></linearGradient>
    <linearGradient id="Dégradé_sans_nom_15" data-name="Dégradé sans nom 15" x1="-57.8" y1="1704.63" x2="-281.71" y2="1612.62" gradientTransform="translate(390.84 -1777.57) rotate(30) skewX(30)" gradientUnits="userSpaceOnUse">
      <stop offset=".04" stop-color="#53d6e2"></stop>
      <stop offset=".43" stop-color="#45c8d2"></stop>
      <stop offset="1" stop-color="#2cafb5"></stop>
    </linearGradient>
    <linearGradient id="Dégradé_sans_nom_28-4" data-name="Dégradé sans nom 28" x1="9.24" y1="206.64" x2="166.8" y2="206.64" gradientTransform="matrix(1,0,0,1,0,0)" xlink:href="#Dégradé_sans_nom_28"></linearGradient>
    <linearGradient id="linear-gradient-3" x1="93.66" y1="63.22" x2="17.22" y2="195.62" gradientTransform="matrix(1,0,0,1,0,0)" xlink:href="#linear-gradient-2"></linearGradient>
    <linearGradient id="Dégradé_sans_nom_28-5" data-name="Dégradé sans nom 28" x1="10.37" y1="129.46" x2="100.6" y2="129.46" gradientTransform="matrix(1,0,0,1,0,0)" xlink:href="#Dégradé_sans_nom_28"></linearGradient>
    <linearGradient id="Dégradé_sans_nom_28-6" data-name="Dégradé sans nom 28" x1="3702.99" y1="129.34" x2="3797.54" y2="129.34" gradientTransform="translate(3804.28) rotate(-180) scale(1 -1)" xlink:href="#Dégradé_sans_nom_28"></linearGradient>
    <linearGradient id="Dégradé_sans_nom_28-7" data-name="Dégradé sans nom 28" x1="-4533.54" y1="184.5" x2="-4435.39" y2="184.5" gradientTransform="translate(-4404.54) rotate(-180) scale(1 -1)" xlink:href="#Dégradé_sans_nom_28"></linearGradient>
    <linearGradient id="Dégradé_sans_nom_15-2" data-name="Dégradé sans nom 15" x1="-5041.6" y1="3864.14" x2="-5184.01" y2="3805.62" gradientTransform="translate(-4351.6 -1777.57) rotate(150) scale(1 -1) skewX(30)" xlink:href="#Dégradé_sans_nom_15"></linearGradient>
    <linearGradient id="Dégradé_sans_nom_28-8" data-name="Dégradé sans nom 28" x1="304.13" y1="213.84" x2="362.83" y2="213.84" gradientTransform="matrix(1,0,0,1,0,0)" xlink:href="#Dégradé_sans_nom_28"></linearGradient>
    <linearGradient id="linear-gradient-4" x1="306.04" y1="154.01" x2="363.48" y2="277.87" gradientTransform="matrix(1,0,0,1,0,0)" xlink:href="#linear-gradient-2"></linearGradient>
    <linearGradient id="Dégradé_sans_nom_28-9" data-name="Dégradé sans nom 28" x1="309.04" y1="211.86" x2="356.51" y2="211.86" gradientTransform="matrix(1,0,0,1,0,0)" xlink:href="#Dégradé_sans_nom_28"></linearGradient>
    <linearGradient id="Dégradé_sans_nom_15-3" data-name="Dégradé sans nom 15" x1="-48.94" y1="1715.02" x2="-101.26" y2="1776.91" xlink:href="#Dégradé_sans_nom_15"></linearGradient>
    <linearGradient id="Dégradé_sans_nom_28-10" data-name="Dégradé sans nom 28" x1="247.48" y1="246.19" x2="283.94" y2="246.19" gradientTransform="matrix(1,0,0,1,0,0)" xlink:href="#Dégradé_sans_nom_28"></linearGradient>
    <linearGradient id="Dégradé_sans_nom_15-4" data-name="Dégradé sans nom 15" x1="-126.43" y1="1807.36" x2="-182.41" y2="1784.36" xlink:href="#Dégradé_sans_nom_15"></linearGradient>
    <linearGradient id="New_Gradient_Swatch_copy_7" data-name="New Gradient Swatch copy 7" x1="251.51" y1="206.74" x2="252.8" y2="204.55" gradientUnits="userSpaceOnUse">
      <stop offset=".04" stop-color="#138bbd"></stop>
      <stop offset=".23" stop-color="#169ac6"></stop>
      <stop offset=".59" stop-color="#1ec2df"></stop>
      <stop offset="1" stop-color="#2af6ff"></stop>
    </linearGradient>
    <linearGradient id="linear-gradient-5" x1="-4048.19" y1="97.25" x2="-4025.07" y2="141.35" gradientTransform="translate(-3945.68) rotate(-180) scale(1 -1)" xlink:href="#linear-gradient-2"></linearGradient>
    <linearGradient id="linear-gradient-6" x1="-4049.14" y1="97.88" x2="-4026.07" y2="141.87" gradientTransform="translate(-3945.68) rotate(-180) scale(1 -1)" xlink:href="#linear-gradient-2"></linearGradient>
    <linearGradient id="linear-gradient-7" x1="-4050.08" y1="98.51" x2="-4027.07" y2="142.4" gradientTransform="translate(-3945.68) rotate(-180) scale(1 -1)" xlink:href="#linear-gradient-2"></linearGradient>
    <linearGradient id="linear-gradient-8" x1="-4051.02" y1="99.14" x2="-4028.06" y2="142.92" gradientTransform="translate(-3945.68) rotate(-180) scale(1 -1)" xlink:href="#linear-gradient-2"></linearGradient>
    <linearGradient id="linear-gradient-9" x1="-4051.96" y1="99.77" x2="-4029.06" y2="143.44" gradientTransform="translate(-3945.68) rotate(-180) scale(1 -1)" xlink:href="#linear-gradient-2"></linearGradient>
    <linearGradient id="linear-gradient-10" x1="-4052.91" y1="100.4" x2="-4030.06" y2="143.97" gradientTransform="translate(-3945.68) rotate(-180) scale(1 -1)" xlink:href="#linear-gradient-2"></linearGradient>
    <linearGradient id="linear-gradient-11" x1="-4053.85" y1="101.03" x2="-4031.05" y2="144.49" gradientTransform="translate(-3945.68) rotate(-180) scale(1 -1)" xlink:href="#linear-gradient-2"></linearGradient>
    <linearGradient id="linear-gradient-12" x1="-4054.79" y1="101.65" x2="-4032.05" y2="145.01" gradientTransform="translate(-3945.68) rotate(-180) scale(1 -1)" xlink:href="#linear-gradient-2"></linearGradient>
    <linearGradient id="linear-gradient-13" x1="-4055.73" y1="102.28" x2="-4033.04" y2="145.53" gradientTransform="translate(-3945.68) rotate(-180) scale(1 -1)" xlink:href="#linear-gradient-2"></linearGradient>
    <linearGradient id="linear-gradient-14" x1="-4056.67" y1="102.91" x2="-4034.04" y2="146.06" gradientTransform="translate(-3945.68) rotate(-180) scale(1 -1)" xlink:href="#linear-gradient-2"></linearGradient>
    <linearGradient id="linear-gradient-15" x1="-4057.6" y1="103.53" x2="-4035.03" y2="146.58" gradientTransform="translate(-3945.68) rotate(-180) scale(1 -1)" xlink:href="#linear-gradient-2"></linearGradient>
    <linearGradient id="linear-gradient-16" x1="-4058.54" y1="104.16" x2="-4036.02" y2="147.1" gradientTransform="translate(-3945.68) rotate(-180) scale(1 -1)" xlink:href="#linear-gradient-2"></linearGradient>
    <linearGradient id="Dégradé_sans_nom_21" data-name="Dégradé sans nom 21" x1="-4086.06" y1="60.18" x2="-4014.85" y2="183.52" gradientTransform="translate(-3945.68) rotate(-180) scale(1 -1)" gradientUnits="userSpaceOnUse">
      <stop offset=".5" stop-color="#b33eff"></stop>
      <stop offset=".77" stop-color="#7500aa"></stop>
    </linearGradient>
    <linearGradient id="linear-gradient-17" x1="-13.65" y1="243.35" x2="6.49" y2="281.74" gradientTransform="translate(262.33)" xlink:href="#linear-gradient-2"></linearGradient>
    <linearGradient id="linear-gradient-18" x1="-14.59" y1="243.98" x2="5.49" y2="282.27" gradientTransform="translate(262.33)" xlink:href="#linear-gradient-2"></linearGradient>
    <linearGradient id="linear-gradient-19" x1="-15.53" y1="244.61" x2="4.49" y2="282.79" gradientTransform="translate(262.33)" xlink:href="#linear-gradient-2"></linearGradient>
    <linearGradient id="linear-gradient-20" x1="-16.47" y1="245.24" x2="3.49" y2="283.31" gradientTransform="translate(262.33)" xlink:href="#linear-gradient-2"></linearGradient>
    <linearGradient id="linear-gradient-21" x1="-17.42" y1="245.87" x2="2.49" y2="283.84" gradientTransform="translate(262.33)" xlink:href="#linear-gradient-2"></linearGradient>
    <linearGradient id="linear-gradient-22" x1="-18.36" y1="246.5" x2="1.5" y2="284.36" gradientTransform="translate(262.33)" xlink:href="#linear-gradient-2"></linearGradient>
    <linearGradient id="linear-gradient-23" x1="-19.3" y1="247.13" x2=".5" y2="284.88" gradientTransform="translate(262.33)" xlink:href="#linear-gradient-2"></linearGradient>
    <linearGradient id="linear-gradient-24" x1="-20.24" y1="247.75" x2="-.49" y2="285.4" gradientTransform="translate(262.33)" xlink:href="#linear-gradient-2"></linearGradient>
    <linearGradient id="linear-gradient-25" x1="-21.18" y1="248.38" x2="-1.49" y2="285.93" gradientTransform="translate(262.33)" xlink:href="#linear-gradient-2"></linearGradient>
    <linearGradient id="linear-gradient-26" x1="-22.12" y1="249.01" x2="-2.48" y2="286.45" gradientTransform="translate(262.33)" xlink:href="#linear-gradient-2"></linearGradient>
    <linearGradient id="linear-gradient-27" x1="-23.05" y1="249.63" x2="-3.47" y2="286.97" gradientTransform="translate(262.33)" xlink:href="#linear-gradient-2"></linearGradient>
    <linearGradient id="linear-gradient-28" x1="-23.99" y1="250.26" x2="-4.47" y2="287.49" gradientTransform="translate(262.33)" xlink:href="#linear-gradient-2"></linearGradient>
    <linearGradient id="Dégradé_sans_nom_21-2" data-name="Dégradé sans nom 21" x1="-58.02" y1="217.06" x2="19.68" y2="316.35" gradientTransform="translate(262.33)" xlink:href="#Dégradé_sans_nom_21"></linearGradient>
    <linearGradient id="Dégradé_sans_nom_22" data-name="Dégradé sans nom 22" x1="-4119.9" y1="1.59" x2="-4048.7" y2="124.93" gradientTransform="translate(-3945.68) rotate(-180) scale(1 -1)" gradientUnits="userSpaceOnUse">
      <stop offset=".49" stop-color="#53d6e2"></stop>
      <stop offset=".6" stop-color="#45c8d2"></stop>
      <stop offset=".76" stop-color="#2cafb5"></stop>
    </linearGradient>
    <linearGradient id="Dégradé_sans_nom_30" data-name="Dégradé sans nom 30" x1="174.06" y1="-52.25" x2="245.27" y2="71.09" gradientTransform="translate(-42.18)" gradientUnits="userSpaceOnUse">
      <stop offset=".51" stop-color="#6400cb"></stop>
      <stop offset=".77" stop-color="#390082"></stop>
    </linearGradient>
    <linearGradient id="Dégradé_sans_nom_22-2" data-name="Dégradé sans nom 22" x1="301.87" y1="-46.05" x2="373.08" y2="77.28" gradientTransform="translate(-42.18)" xlink:href="#Dégradé_sans_nom_22"></linearGradient>
    <linearGradient id="Dégradé_sans_nom_21-3" data-name="Dégradé sans nom 21" x1="-4040.75" y1="-17.13" x2="-3969.54" y2="106.21" xlink:href="#Dégradé_sans_nom_21"></linearGradient>
  </defs>
  <g style="isolation: isolate;">
    <g id="En-tête_développement" data-name="En-tête développement">
      <g id="Calque_72" data-name="Calque 72">
        <path d="m296.95,301.86l-.24.14-63.66-36.76c-5.14-2.96-5.11-7.8.06-10.79l14.83-8.56c5.04-2.91,5.06-7.63.06-10.51L42.5,116.73l.24-.14,205.49,118.64c5.14,2.97,5.11,7.8-.06,10.79l-14.83,8.56c-5.04,2.91-5.06,7.63-.06,10.52l63.66,36.76Zm-25.31-42.56c-5.79-3.34-5.76-8.79.07-12.15l1.66-.96c5.95-3.44,5.98-9.01.07-12.43l-142.25-81.47-19.42-11.21-.24.14,19.46,11.23,142.21,81.45c5.79,3.34,5.76,8.79-.07,12.15l-1.66.96c-5.95,3.44-5.98,9.01-.07,12.43l20.98,12.12.24-.14-20.98-12.12Zm-72.67,11.19c-5.79-3.34-5.76-8.79.07-12.15l19.69-11.37c5.95-3.44,5.98-9.01.07-12.43l-54.7-31.58-.24.14,54.7,31.58c5.79,3.34,5.76,8.79-.07,12.15l-19.69,11.37c-5.95,3.44-5.98,9.01-.07,12.43l71.91,41.52.24-.14-71.91-41.52Zm-15.45,14.37l-22.64-13.07c-5.79-3.34-5.76-8.79.07-12.15l24.44-14.11c5.95-3.44,5.98-9.01.07-12.43l-71.21-41.11-.24.14,71.21,41.11c5.79,3.34,5.76,8.79-.07,12.15l-24.44,14.11c-5.95,3.44-5.98,9.01-.07,12.43l22.64,13.07c5.79,3.34,5.76,8.79-.07,12.15l-13.76,7.95.24.14,13.76-7.95c5.95-3.44,5.98-9.01.07-12.43Zm125.96-23.44c-5.79-3.34-5.76-8.79.07-12.15l6.41-3.7c5.95-3.44,5.98-9.01.07-12.43l-138.17-79.77-.24.14,138.17,79.77c5.79,3.34,5.76,8.79-.07,12.15l-6.41,3.7c-5.95,3.44-5.98,9.01-.07,12.43l29.94,17.29.24-.14-29.94-17.29Zm-15.49.23c-5.79-3.34-5.76-8.79.07-12.15l2.73-1.58c5.95-3.44,5.98-9.01.07-12.43l-143.36-82.77-.24.14,143.36,82.77c5.79,3.34,5.76,8.79-.07,12.15l-2.73,1.58c-5.95,3.44-5.98,9.01-.07,12.43l29,16.74.24-.14-29-16.74Zm-111.8,8.74c-5.79-3.34-5.76-8.79.07-12.15l20.64-11.92c5.95-3.44,5.98-9.01.07-12.43l-112.94-65.21-.24.14,112.94,65.21c5.79,3.34,5.76,8.79-.07,12.15l-20.64,11.92c-5.95,3.44-5.98,9.01-.07,12.43l91.96,53.09.24-.14-91.96-53.09Zm155.09-8.95c-5.79-3.34-5.76-8.79.07-12.15l2.73-1.58c5.95-3.44,5.98-9.01.07-12.43l-124.28-71.88-.24.14,124.28,71.88c5.79,3.34,5.76,8.79-.07,12.15l-2.73,1.58c-5.95,3.44-5.98,9.01-.07,12.43l26.64,15.38.24-.14-26.64-15.38Zm-124.78,45.9c-5.92-3.42-15.57-3.4-21.52.04l-10.2,5.89c-5.82,3.36-15.27,3.38-21.05.04l-5.19-2.99c-5.79-3.34-5.76-8.79.07-12.15,5.95-3.44,5.98-9.01.07-12.43l-17.68-10.21c-5.79-3.34-5.76-8.79.07-12.15l24.91-14.38c5.95-3.44,5.98-9.01.07-12.43L33.27,162.23l-.24.14,128.74,74.33c5.79,3.34,5.76,8.79-.07,12.15l-24.91,14.38c-5.95,3.44-5.98,9.01-.07,12.43l17.68,10.21c5.79,3.34,5.76,8.79-.07,12.15-5.95,3.44-5.98,9.01-.07,12.43l5.19,2.99c5.92,3.42,15.57,3.4,21.52-.04l10.2-5.89c5.82-3.36,15.27-3.38,21.05-.04l26.41,15.25.24-.14-26.41-15.25Zm-4.75,19.72c-5.92-3.42-15.57-3.4-21.52.04l-1.93,1.12c-5.82,3.36-15.27,3.38-21.05.04l-32.19-18.58c-5.79-3.34-5.76-8.79.07-12.15l1.93-1.12c5.95-3.44,5.98-9.01.07-12.43l-19.81-11.44c-5.79-3.34-5.76-8.79.07-12.15l29.39-16.97-.24-.14-29.39,16.97c-5.95,3.44-5.98,9.01-.07,12.43l19.81,11.44c5.79,3.34,5.76,8.79-.07,12.15l-1.93,1.12c-5.95,3.44-5.98,9.01-.07,12.43l32.19,18.58c5.92,3.42,15.57,3.4,21.52-.04l1.93-1.12c5.82-3.36,15.27-3.38,21.05-.04l14.15,8.17.24-.14-14.15-8.17Zm-1.04,16.94c-5.92-3.42-15.57-3.4-21.52.04l-5.97,3.45c-5.82,3.36-15.27,3.38-21.05.04l-61.51-35.51c-5.79-3.34-5.76-8.79.07-12.15l9.05-5.23c5.95-3.44,5.98-9.01.07-12.43l-20.58-11.88c-5.79-3.34-5.76-8.79.07-12.15l24.44-14.11c5.95-3.44,5.98-9.01.07-12.43L9.74,173.85l-.24.14,100.08,57.78c5.79,3.34,5.76,8.79-.07,12.15l-24.44,14.11c-5.95,3.44-5.98,9.01-.07,12.43l20.58,11.88c5.79,3.34,5.76,8.79-.07,12.15l-9.05,5.23c-5.95,3.44-5.98,9.01-.07,12.43l61.51,35.51c5.92,3.42,15.57,3.4,21.52-.04l5.97-3.45c5.82-3.36,15.27-3.38,21.05-.04l13.44,7.76.24-.14-13.44-7.76Z" style="fill: url(#Dégradé_sans_nom_37); stroke-width: 0px;"></path>
        <path d="m10.04,173.67c.23.13.23.35,0,.48-.23.13-.61.13-.84,0-.23-.13-.23-.35,0-.48.23-.13.61-.13.84,0Zm22.69-11.62c-.23.13-.23.35,0,.48.23.13.61.13.84,0,.23-.13.23-.35,0-.48s-.61-.13-.84,0Zm56.73,6.45c-.23.13-.23.35,0,.48.23.13.61.13.84,0,.23-.13.23-.35,0-.48-.23-.13-.61-.13-.84,0Zm24.28,23.33c-.23.13-.23.35,0,.48.23.13.61.13.84,0s.23-.35,0-.48c-.23-.13-.61-.13-.84,0Zm49.8,10.95c-.23.13-.23.35,0,.48.23.13.61.13.84,0,.23-.13.23-.35,0-.48-.23-.13-.61-.13-.84,0Zm-21.34,40.32c-.23.13-.23.35,0,.48.23.13.61.13.84,0,.23-.13.23-.35,0-.48-.23-.13-.61-.13-.84,0Zm26.93,61.82c-.23.13-.23.35,0,.48.23.13.61.13.84,0,.23-.13.23-.35,0-.48-.23-.13-.61-.13-.84,0Zm50.46,46.66c-.23.13-.23.35,0,.48.23.13.61.13.84,0,.23-.13.23-.35,0-.48-.23-.13-.61-.13-.84,0Zm1.72-16.51c-.23.13-.23.35,0,.48.23.13.61.13.84,0,.23-.13.23-.35,0-.48s-.61-.13-.84,0Zm17.03-12.66c-.23.13-.23.35,0,.48.23.13.61.13.84,0,.23-.13.23-.35,0-.48-.23-.13-.61-.13-.84,0Zm35.2.87c-.23.13-.23.35,0,.48.23.13.61.13.84,0,.23-.13.23-.35,0-.48-.23-.13-.61-.13-.84,0Zm-3.21-11.44c-.23.13-.23.35,0,.48.23.13.61.13.84,0,.23-.13.23-.35,0-.48s-.61-.13-.84,0Zm26.07-10.15c-.23.13-.23.35,0,.48.23.13.61.13.84,0,.23-.13.23-.35,0-.48-.23-.13-.61-.13-.84,0Zm-4.23-30.38c-.23.13-.23.35,0,.48.23.13.61.13.84,0,.23-.13.23-.35,0-.48-.23-.13-.61-.13-.84,0Zm30.25,6.92c-.23.13-.23.35,0,.48.23.13.61.13.84,0s.23-.35,0-.48-.61-.13-.84,0Zm16.47.33c-.23.13-.23.35,0,.48s.61.13.84,0c.23-.13.23-.35,0-.48-.23-.13-.61-.13-.84,0Zm24.49-1.89c-.23.13-.23.35,0,.48.23.13.61.13.84,0,.23-.13.23-.35,0-.48-.23-.13-.61-.13-.84,0ZM111.22,140.91c-.23.13-.23.35,0,.48.23.13.61.13.84,0,.23-.13.23-.35,0-.48-.23-.13-.61-.13-.84,0Zm-69.02-24.48c-.23.13-.23.35,0,.48.23.13.61.13.84,0,.23-.13.23-.35,0-.48-.23-.13-.61-.13-.84,0Zm110.74,36.13c-.23.13-.23.35,0,.48.23.13.61.13.84,0,.23-.13.23-.35,0-.48-.23-.13-.61-.13-.84,0Zm62.36,10.67c-.23.13-.23.35,0,.48.23.13.61.13.84,0,.23-.13.23-.35,0-.48-.23-.13-.61-.13-.84,0Zm-37.98-10.04c-.23.13-.23.35,0,.48.23.13.61.13.84,0,.23-.13.23-.35,0-.48-.23-.13-.61-.13-.84,0Z" style="fill: #fff; stroke: #fff; stroke-miterlimit: 10; stroke-width: .78px;"></path>
      </g>
      <g>
        <g>
          <path d="m272.59,216.36l-52.85-30.69c-1.42-.82-2.13-1.91-2.15-3.06,0-.04,0-3.96,0-3.99.03-1.39,1.05,1.03,3.04-.12l46.38-17.84c3.67-2.12,9.23-2.35,12.42-.51l35.52,20.81c1.06.61,1.83-1.99,2.11-1.16.09.28.03,3.93.04,4.21.03,1.43-1,2.94-3.04,4.12l-29.05,27.72c-3.67,2.12-9.23,2.35-12.42.51Z" style="fill: #1a0044; stroke-width: 0px;"></path>
          <path d="m272.59,212.44l-52.85-30.69c-3.18-1.84-2.78-5.05.89-7.17l46.38-17.84c3.67-2.12,9.23-2.35,12.42-.51l35.52,20.81c3.18,1.84,2.78,5.05-.89,7.17l-29.05,27.72c-3.67,2.12-9.23,2.35-12.42.51Z" style="fill: #6400cb; stroke-width: 0px;"></path>
          <path d="m314.94,177.04l-35.52-20.81c-3.18-1.84-8.74-1.61-12.42.51l-23.37,8.99c.22.17.45.34.73.5l52.85,30.69c.73.42,1.59.73,2.53.94l14.31-13.66c3.67-2.12,4.07-5.33.89-7.17Z" style="fill: url(#linear-gradient); mix-blend-mode: multiply; opacity: .82; stroke-width: 0px;"></path>
          <path d="m314.05,183.54l-29.05,27.72c-3.67,2.12-9.23,2.35-12.42.51l-52.85-30.69c-1.32-.76-2.01-1.76-2.12-2.82-.17,1.3.53,2.57,2.12,3.49l52.85,30.69c3.18,1.84,8.74,1.61,12.42-.51l29.05-27.72c2.15-1.24,3.17-2.85,3.02-4.35-.16,1.29-1.18,2.62-3.02,3.68Z" style="fill: url(#Dégradé_sans_nom_28); stroke-width: 0px;"></path>
        </g>
        <g>
          <path d="m341.63,212.62l-129.79-74.99c-6.64-3.83-12.01-14.11-12.01-22.96V15.4c0-8.85,5.38-12.91,12.01-9.08l129.79,74.99c6.64,3.83,12.01,14.11,12.01,22.96v99.26c0,8.85-5.38,12.91-12.01,9.08Z" style="fill: #1a0044; stroke-width: 0px;"></path>
          <path d="m343.18,205.7l-127.96-73.93c-5.34-3.39-8.64-10.17-8.64-17.11V14.75c0-1.64,1.79-2.67,3.21-1.83.17.1.3.17.38.22l128.1,74.02c6.36,3.66,8.64,10.18,8.64,17.11v99.6c0,1.76-1.91,2.87-3.44,2-.12-.07-.22-.12-.28-.16Z" style="fill: url(#linear-gradient-2); stroke-width: 0px;"></path>
          <path d="m338.25,87.16L210.16,13.13c-.08-.05-.21-.12-.38-.22-1.42-.83-3.21.19-3.21,1.83v99.91c0,6.94,3.3,13.72,8.64,17.11l127.96,73.93c.06.04.16.09.28.16,1.53.87,3.44-.23,3.44-2v-99.6c0-6.94-2.29-13.45-8.64-17.11Zm7.29,116.71c0,.59-.49.95-.95.95-.16,0-.32-.04-.47-.13l-128.23-74.08c-4.82-3.07-7.97-9.34-7.97-15.95V14.75c0-.48.41-.78.78-.78.13,0,.27.04.39.11l128.48,74.24c6.59,3.8,7.97,10.77,7.97,15.95v99.6Z" style="fill: url(#Dégradé_sans_nom_28-2); stroke-width: 0px;"></path>
          <path d="m345.03,79.51L215.25,4.51c-2.63-1.52-5.05-1.8-7.03-1.03-.25.1-3.6,1.88-3.84,2.01h-.01c2.05-.99,4.64-.8,7.47.83l129.79,74.99c6.64,3.83,12.01,14.11,12.01,22.96v99.26c0,5.52-2.1,9.18-5.28,10.22.26.01.58-.09,1.05-.36.15-.09,3.79-2.14,3.93-2.24,2.28-1.6,3.7-4.88,3.7-9.43v-99.26c0-8.85-5.38-19.13-12.01-22.96Z" style="fill: #6400cb; stroke-width: 0px;"></path>
          <path d="m342.21,81.03L212.42,6.03c-2.72-1.57-5.22-1.79-7.24-.92,1.72-.27,3.69.14,5.8,1.36l129.79,74.99c6.64,3.83,12.01,14.11,12.01,22.96v99.26c0,5.22-1.88,8.76-4.78,10.01,3.71-.59,6.22-4.4,6.22-10.44v-99.26c0-8.85-5.38-19.13-12.01-22.96Z" style="fill: url(#Dégradé_sans_nom_28-3); stroke-width: 0px;"></path>
        </g>
        <polygon points="341.97 151.69 211.31 76.62 211.31 27.69 341.97 102.76 341.97 151.69" style="fill: url(#Dégradé_sans_nom_15); stroke-width: 0px;"></polygon>
        <path d="m230.62,32.31c0,1.52-1.07,2.13-2.39,1.36-1.32-.76-2.39-2.61-2.39-4.13s1.07-2.13,2.39-1.36c1.32.76,2.39,2.61,2.39,4.13Z" style="fill: #2f00eb; stroke-width: 0px;"></path>
        <path d="m223.08,28.1c0,1.52-1.07,2.13-2.39,1.36-1.32-.76-2.39-2.61-2.39-4.13s1.07-2.13,2.39-1.36c1.32.76,2.39,2.61,2.39,4.13Z" style="fill: #674dff; stroke-width: 0px;"></path>
        <path d="m215.47,23.79c0,1.52-1.07,2.13-2.39,1.36-1.32-.76-2.39-2.61-2.39-4.13s1.07-2.13,2.39-1.36c1.32.76,2.39,2.61,2.39,4.13Z" style="fill: #53d6e2; stroke-width: 0px;"></path>
        <polygon points="328.63 90.39 342.02 98.13 342.02 94.48 328.63 86.75 328.63 90.39" style="fill: #b33eff; stroke-width: 0px;"></polygon>
        <polygon points="311.56 80.4 324.96 88.13 324.96 84.48 311.56 76.75 311.56 80.4" style="fill: #b33eff; stroke-width: 0px;"></polygon>
        <polygon points="251.82 125.61 211.42 102.09 211.42 81.57 251.82 105.09 251.82 125.61" style="fill: #b33eff; stroke-width: 0px;"></polygon>
        <g>
          <polygon points="251.78 133 211.55 109.58 211.55 105.95 251.78 129.37 251.78 133" style="fill: #fff; stroke-width: 0px;"></polygon>
          <polygon points="251.78 137.09 211.55 113.67 211.55 112.02 251.78 135.44 251.78 137.09" style="fill: #fff; stroke-width: 0px;"></polygon>
          <polygon points="251.78 140.54 211.55 117.12 211.55 115.47 251.78 138.89 251.78 140.54" style="fill: #fff; stroke-width: 0px;"></polygon>
          <polygon points="251.78 143.98 211.55 120.56 211.55 118.91 251.78 142.33 251.78 143.98" style="fill: #fff; stroke-width: 0px;"></polygon>
        </g>
        <polygon points="296.82 152.09 256.42 128.57 256.42 108.06 296.82 131.58 296.82 152.09" style="fill: #b33eff; stroke-width: 0px;"></polygon>
        <g>
          <polygon points="296.78 159.48 256.55 136.06 256.55 132.44 296.78 155.86 296.78 159.48" style="fill: #fff; stroke-width: 0px;"></polygon>
          <polygon points="296.78 163.58 256.55 140.16 256.55 138.51 296.78 161.93 296.78 163.58" style="fill: #fff; stroke-width: 0px;"></polygon>
          <polygon points="296.78 167.02 256.55 143.6 256.55 141.95 296.78 165.37 296.78 167.02" style="fill: #fff; stroke-width: 0px;"></polygon>
          <polygon points="296.78 170.47 256.55 147.05 256.55 145.4 296.78 168.82 296.78 170.47" style="fill: #fff; stroke-width: 0px;"></polygon>
        </g>
        <g>
          <polygon points="297.43 96.18 257.2 72.76 257.2 69.13 297.43 92.55 297.43 96.18" style="fill: #fff; stroke-width: 0px;"></polygon>
          <polygon points="306.22 105.98 247.29 71.69 247.29 70.04 306.22 104.33 306.22 105.98" style="fill: #fff; stroke-width: 0px;"></polygon>
        </g>
        <path d="m287.81,114.27l-22.23-12.79c-1.55-.9-2.83-3.33-2.83-5.4v-3.06c0-2.07,1.27-3.03,2.83-2.14l22.23,12.79c1.55.9,2.83,3.33,2.83,5.4v3.06c0,2.07-1.27,3.03-2.83,2.14Z" style="fill: #2f00eb; stroke-width: 0px;"></path>
        <g>
          <path d="m76.22,237.63l88.23-50.94c1.55-.9,2.33-2.09,2.35-3.35,0-.04,0-4.33,0-4.37-.03-1.53-1.15,1.12-3.33-.13l-50.07-28.91c-4.02-2.32-10.11-2.57-13.59-.56L11.58,200.31c-1.16.67-2.01-2.18-2.31-1.27-.1.3-.04,4.3-.04,4.61-.03,1.56,1.09,3.22,3.33,4.51l50.07,28.91c4.02,2.32,10.11,2.57,13.59.56Z" style="fill: #390082; stroke-width: 0px;"></path>
          <path d="m76.22,233.34l88.23-50.94c3.48-2.01,3.05-5.53-.98-7.85l-50.07-28.91c-4.02-2.32-10.11-2.57-13.59-.56L11.58,196.02c-3.48,2.01-3.05,5.53.98,7.85l50.07,28.91c4.02,2.32,10.11,2.57,13.59.56Z" style="fill: #1a0044; stroke-width: 0px;"></path>
          <path d="m70.32,232.93c1.99,0,3.77-.4,5.02-1.12l88.23-50.94c.55-.32,1.47-.98,1.47-1.88s-.91-2.03-2.45-2.91l-50.07-28.91c-1.85-1.07-4.34-1.69-6.81-1.69-1.99,0-3.77.4-5.02,1.12L12.47,197.54c-.55.32-1.47.98-1.47,1.88s.91,2.03,2.45,2.91l50.07,28.91c1.85,1.07,4.34,1.69,6.81,1.69Z" style="fill: #6400cb; stroke-width: 0px;"></path>
          <path d="m12.56,203.14l50.07,28.91c4.02,2.32,10.11,2.57,13.59.56l88.23-50.94c1.45-.83,2.21-1.93,2.33-3.09.18,1.42-.58,2.81-2.33,3.82l-88.23,50.94c-3.48,2.01-9.57,1.76-13.59-.56l-50.07-28.91c-2.35-1.36-3.47-3.12-3.3-4.76.18,1.42,1.29,2.87,3.3,4.03Z" style="fill: url(#Dégradé_sans_nom_28-4); stroke-width: 0px;"></path>
          <path d="m60.55,214.57l71.65-41.36c1.43-.83,1.25-2.28-.4-3.23l-26.9-15.53c-1.66-.96-4.16-1.06-5.6-.23l-71.65,41.36c-1.43.83-1.25,2.28.4,3.23l26.9,15.53c1.66.96,4.16,1.06,5.6.23Z" style="fill: #390082; stroke-width: 0px;"></path>
          <g>
            <path d="m12.98,195.34l85.01-49.11c3.29-1.9,5.96-7,5.96-11.39v-66.69c0-4.39-2.67-6.41-5.96-4.5L12.98,112.76c-3.29,1.9-5.96,7-5.96,11.39v66.69c0,4.39,2.67,6.41,5.96,4.5Z" style="fill: #1a0044; stroke-width: 0px;"></path>
            <path d="m12.22,191.91l84.1-48.58c2.65-1.68,4.29-5.05,4.29-8.49v-67.01c0-.82-.89-1.32-1.59-.91-.08.05-.15.09-.19.11L14.66,115.66c-3.15,1.82-4.29,5.05-4.29,8.49v66.85c0,.87.95,1.42,1.71.99.06-.03.11-.06.14-.08Z" style="fill: url(#linear-gradient-3); stroke-width: 0px;"></path>
            <path d="m10.37,124.15v66.85c0,.87.95,1.42,1.71.99.06-.03.11-.06.14-.08l84.1-48.58c2.65-1.68,4.29-5.05,4.29-8.49v-67.01c0-.82-.89-1.32-1.59-.91-.08.05-.15.09-.19.11L14.66,115.66c-3.15,1.82-4.29,5.05-4.29,8.49Zm.67,0c0-2.57.69-6.03,3.95-7.91l84.36-48.74c.06-.04.13-.05.19-.05.19,0,.39.15.39.39v67.01c0,3.28-1.56,6.39-3.95,7.91L11.74,191.41c-.07.04-.15.06-.23.06-.23,0-.47-.18-.47-.47v-66.85Z" style="fill: url(#Dégradé_sans_nom_28-5); stroke-width: 0px;"></path>
            <path d="m11.29,111.87l85.01-49.11c1.3-.75,2.51-.89,3.49-.51.12.05,1.79.93,1.9,1,0,0,0,0,0,0-1.02-.49-2.3-.4-3.71.41L12.98,112.76c-3.29,1.9-5.96,7-5.96,11.39v66.69c0,2.74,1.04,4.55,2.62,5.07-.13,0-.29-.04-.52-.18-.08-.04-1.88-1.06-1.95-1.11-1.13-.79-1.84-2.42-1.84-4.68v-66.69c0-4.39,2.67-9.49,5.96-11.39Z" style="fill: #6400cb; stroke-width: 0px;"></path>
            <path d="m12.7,112.62l85.01-49.11c1.35-.78,2.59-.89,3.59-.46-.85-.14-1.83.07-2.87.67L13.41,112.83c-3.29,1.9-5.96,7-5.96,11.39v66.69c0,2.59.93,4.34,2.37,4.96-1.84-.29-3.08-2.18-3.08-5.18v-66.69c0-4.39,2.67-9.49,5.96-11.39Z" style="fill: url(#Dégradé_sans_nom_28-6); stroke-width: 0px;"></path>
          </g>
          <path d="m103.37,156.09c-.58-.33-1.52-.33-2.11,0l-4.59,2.65c-.58.34-.59.88,0,1.22.58.33,1.52.33,2.11,0l4.59-2.65c.58-.34.59-.88,0-1.22Zm-7.85,4.53c-.58-.33-1.52-.33-2.11,0l-2.17,1.25c-.58.34-.59.88,0,1.22.58.33,1.52.33,2.11,0l2.17-1.25c.58-.34.59-.88,0-1.22Zm-5.44,3.14c-.58-.33-1.52-.33-2.11,0l-2.17,1.25c-.58.34-.59.88,0,1.22.58.33,1.52.33,2.11,0l2.17-1.25c.58-.34.59-.88,0-1.22Zm-5.44,3.14c-.58-.33-1.52-.33-2.11,0l-2.17,1.25c-.58.34-.59.88,0,1.22.58.33,1.52.33,2.11,0l2.17-1.25c.58-.34.59-.88,0-1.22Zm-5.44,3.14c-.58-.33-1.52-.33-2.11,0l-2.17,1.25c-.58.34-.59.88,0,1.22s1.52.33,2.11,0l2.17-1.25c.58-.34.59-.88,0-1.22Zm-5.44,3.14c-.58-.33-1.52-.33-2.11,0l-2.17,1.25c-.58.34-.59.88,0,1.22.58.33,1.52.33,2.11,0l2.17-1.25c.58-.34.59-.88,0-1.22Zm-5.44,3.14c-.58-.33-1.52-.33-2.11,0l-2.17,1.25c-.58.34-.59.88,0,1.22.58.33,1.52.33,2.11,0l2.17-1.25c.58-.34.59-.88,0-1.22Zm-5.44,3.14c-.58-.33-1.52-.33-2.11,0l-2.17,1.25c-.58.34-.59.88,0,1.22.58.33,1.52.33,2.11,0l2.17-1.25c.58-.34.59-.88,0-1.22Zm-5.44,3.14c-.58-.33-1.52-.33-2.11,0l-2.17,1.25c-.58.34-.59.88,0,1.22s1.52.33,2.11,0l2.17-1.25c.58-.34.59-.88,0-1.22Zm-5.44,3.14c-.58-.33-1.52-.33-2.11,0l-2.17,1.25c-.58.34-.59.88,0,1.22.58.33,1.52.33,2.11,0l2.17-1.25c.58-.34.59-.88,0-1.22Zm-5.44,3.14c-.58-.33-1.52-.33-2.11,0l-2.17,1.25c-.58.34-.59.88,0,1.22s1.52.33,2.11,0l2.17-1.25c.58-.34.59-.88,0-1.22Zm-5.44,3.14c-.58-.33-1.52-.33-2.11,0l-2.17,1.25c-.58.34-.59.88,0,1.22.58.33,1.52.33,2.11,0l2.17-1.25c.58-.34.59-.88,0-1.22Zm-5.55,3.21c-.58-.33-1.52-.33-2.11,0l-2.17,1.25c-.58.34-.59.88,0,1.22.58.33,1.52.33,2.11,0l2.17-1.25c.58-.34.59-.88,0-1.22Zm72.69-36.32l-1.87-1.08c-.66-.38-1.73-.38-2.4,0l-1.88,1.09c-.66.38-.67,1,0,1.38l1.87,1.08c.66.38,1.73.38,2.4,0l1.88-1.09c.66-.38.67-1,0-1.38Zm-7.33,5.61l1.88-1.09c.66-.38.67-1,0-1.38l-1.87-1.08c-.66-.38-1.73-.38-2.4,0l-1.88,1.09c-.66.38-.67,1,0,1.38l1.87,1.08c.66.38,1.73.38,2.4,0Zm-3.55.67l-1.87-1.08c-.66-.38-1.73-.38-2.4,0l-1.88,1.09c-.66.38-.67,1,0,1.38l1.87,1.08c.66.38,1.73.38,2.4,0l1.88-1.09c.66-.38.67-1,0-1.38Zm-5.44,3.14l-1.87-1.08c-.66-.38-1.73-.38-2.4,0l-1.88,1.09c-.66.38-.67,1,0,1.38l1.87,1.08c.66.38,1.73.38,2.4,0l1.88-1.09c.66-.38.67-1,0-1.38Zm-11.59,4.54l1.87,1.08c.66.38,1.73.38,2.4,0l1.88-1.09c.66-.38.67-1,0-1.38l-1.87-1.08c-.66-.38-1.73-.38-2.4,0l-1.88,1.09c-.66.38-.67,1,0,1.38Zm-5.44,3.14l1.87,1.08c.66.38,1.73.38,2.4,0l1.88-1.09c.66-.38.67-1,0-1.38l-1.87-1.08c-.66-.38-1.73-.38-2.4,0l-1.88,1.09c-.66.38-.67,1,0,1.38Zm-5.44,3.14l1.87,1.08c.66.38,1.73.38,2.4,0l1.88-1.09c.66-.38.67-1,0-1.38l-1.87-1.08c-.66-.38-1.73-.38-2.4,0l-1.88,1.09c-.66.38-.67,1,0,1.38Zm-5.44,3.14l1.87,1.08c.66.38,1.73.38,2.4,0l1.88-1.09c.66-.38.67-1,0-1.38l-1.87-1.08c-.66-.38-1.73-.38-2.4,0l-1.88,1.09c-.66.38-.67,1,0,1.38Zm-5.44,3.14l1.87,1.08c.66.38,1.73.38,2.4,0l1.88-1.09c.66-.38.67-1,0-1.38l-1.87-1.08c-.66-.38-1.73-.38-2.4,0l-1.88,1.09c-.66.38-.67,1,0,1.38Zm-5.44,3.14l1.87,1.08c.66.38,1.73.38,2.4,0l1.88-1.09c.66-.38.67-1,0-1.38l-1.87-1.08c-.66-.38-1.73-.38-2.4,0l-1.88,1.09c-.66.38-.67,1,0,1.38Zm.72,1.75l-1.87-1.08c-.66-.38-1.73-.38-2.4,0l-1.88,1.09c-.66.38-.67,1,0,1.38l1.87,1.08c.66.38,1.73.38,2.4,0l1.88-1.09c.66-.38.67-1,0-1.38Zm-11.59,4.54l1.87,1.08c.66.38,1.73.38,2.4,0l1.88-1.09c.66-.38.67-1,0-1.38l-1.87-1.08c-.66-.38-1.73-.38-2.4,0l-1.88,1.09c-.66.38-.67,1,0,1.38Zm-7.97,4.6l1.87,1.08c.66.38,1.73.38,2.4,0l4.3-2.48c.66-.38.67-1,0-1.38l-1.87-1.08c-.66-.38-1.73-.38-2.4,0l-4.3,2.48c-.66.38-.67,1,0,1.38Zm78.99-37.63l-1.87-1.08c-.66-.38-1.73-.38-2.4,0l-4.3,2.48c-.66.38-.67,1,0,1.38l1.87,1.08c.66.38,1.73.38,2.4,0l4.3-2.48c.66-.38.67-1,0-1.38Zm-7.85,4.53l-1.87-1.08c-.66-.38-1.73-.38-2.4,0l-1.88,1.09c-.66.38-.67,1,0,1.38l1.87,1.08c.66.38,1.73.38,2.4,0l1.88-1.09c.66-.38.67-1,0-1.38Zm-5.45,4.52c.66-.38.67-1,0-1.38l-1.87-1.08c-.66-.38-1.73-.38-2.4,0l-1.88,1.09c-.66.38-.67,1,0,1.38l1.87,1.08c.66.38,1.73.38,2.4,0l1.88-1.09Zm-5.44,3.14c.66-.38.67-1,0-1.38l-1.87-1.08c-.66-.38-1.73-.38-2.4,0l-1.88,1.09c-.66.38-.67,1,0,1.38l1.87,1.08c.66.38,1.73.38,2.4,0l1.88-1.09Zm-9.7.68l-1.88,1.09c-.66.38-.67,1,0,1.38l1.87,1.08c.66.38,1.73.38,2.4,0l1.88-1.09c.66-.38.67-1,0-1.38l-1.87-1.08c-.66-.38-1.73-.38-2.4,0Zm-5.32,3.07l-2.11,1.22c-.6.35-.6.91,0,1.25l2.1,1.21c.6.34,1.57.34,2.17,0l2.11-1.22c.6-.35.6-.91,0-1.25l-2.1-1.21c-.6-.34-1.57-.34-2.17,0Zm-5.44,3.14l-2.11,1.22c-.6.35-.6.91,0,1.25l2.1,1.21c.6.34,1.57.34,2.17,0l2.11-1.22c.6-.35.6-.91,0-1.25l-2.1-1.21c-.6-.34-1.57-.34-2.17,0Zm-5.44,3.14l-2.11,1.22c-.6.35-.6.91,0,1.25l2.1,1.21c.6.34,1.57.34,2.17,0l2.11-1.22c.6-.35.6-.91,0-1.25l-2.1-1.21c-.6-.34-1.57-.34-2.17,0Zm-5.44,3.14l-2.11,1.22c-.6.35-.6.91,0,1.25l2.1,1.21c.6.34,1.57.34,2.17,0l2.11-1.22c.6-.35.6-.91,0-1.25l-2.1-1.21c-.6-.34-1.57-.34-2.17,0Zm-5.44,3.14l-2.11,1.22c-.6.35-.6.91,0,1.25l2.1,1.21c.6.34,1.57.34,2.17,0l2.11-1.22c.6-.35.6-.91,0-1.25l-2.1-1.21c-.6-.34-1.57-.34-2.17,0Zm-3.29,6.82l2.11-1.22c.6-.35.6-.91,0-1.25l-2.1-1.21c-.6-.34-1.57-.34-2.17,0l-2.11,1.22c-.6.35-.6.91,0,1.25l2.1,1.21c.6.34,1.57.34,2.17,0Zm-5.44,3.14l2.11-1.22c.6-.35.6-.91,0-1.25l-2.1-1.21c-.6-.34-1.57-.34-2.17,0l-2.11,1.22c-.6.35-.6.91,0,1.25l2.1,1.21c.6.34,1.57.34,2.17,0Zm-9.82,2l2.1,1.21c.6.34,1.57.34,2.17,0l2.11-1.22c.6-.35.6-.91,0-1.25l-2.1-1.21c-.6-.34-1.57-.34-2.17,0l-2.11,1.22c-.6.35-.6.91,0,1.25Zm79.22-37.5l-2.1-1.21c-.6-.34-1.57-.34-2.17,0l-6.82,3.94c-.6.35-.6.91,0,1.25l2.1,1.21c.6.34,1.57.34,2.17,0l6.82-3.94c.6-.35.6-.91,0-1.25Zm-10.15,5.86l-2.1-1.21c-.6-.34-1.57-.34-2.17,0l-2.11,1.22c-.6.35-.6.91,0,1.25l2.1,1.21c.6.34,1.57.34,2.17,0l2.11-1.22c.6-.35.6-.91,0-1.25Zm-5.44,3.14l-2.1-1.21c-.6-.34-1.57-.34-2.17,0l-2.11,1.22c-.6.35-.6.91,0,1.25l2.1,1.21c.6.34,1.57.34,2.17,0l2.11-1.22c.6-.35.6-.91,0-1.25Zm-5.44,3.14l-2.1-1.21c-.6-.34-1.57-.34-2.17,0l-2.11,1.22c-.6.35-.6.91,0,1.25l2.1,1.21c.6.34,1.57.34,2.17,0l2.11-1.22c.6-.35.6-.91,0-1.25Zm-7.56,5.61l2.11-1.22c.6-.35.6-.91,0-1.25l-2.1-1.21c-.6-.34-1.57-.34-2.17,0l-2.11,1.22c-.6.35-.6.91,0,1.25l2.1,1.21c.6.34,1.57.34,2.17,0Zm-5.44,3.14l2.11-1.22c.6-.35.6-.91,0-1.25l-2.1-1.21c-.6-.34-1.57-.34-2.17,0l-2.11,1.22c-.6.35-.6.91,0,1.25l2.1,1.21c.6.34,1.57.34,2.17,0Zm-5.44,3.14l2.11-1.22c.6-.35.6-.91,0-1.25l-2.1-1.21c-.6-.34-1.57-.34-2.17,0l-2.11,1.22c-.6.35-.6.91,0,1.25l2.1,1.21c.6.34,1.57.34,2.17,0Zm-5.44,3.14l2.11-1.22c.6-.35.6-.91,0-1.25l-2.1-1.21c-.6-.34-1.57-.34-2.17,0l-2.11,1.22c-.6.35-.6.91,0,1.25l2.1,1.21c.6.34,1.57.34,2.17,0Zm-5.44,3.14l2.11-1.22c.6-.35.6-.91,0-1.25l-2.1-1.21c-.6-.34-1.57-.34-2.17,0l-2.11,1.22c-.6.35-.6.91,0,1.25l2.1,1.21c.6.34,1.57.34,2.17,0Zm-5.44,3.14l2.11-1.22c.6-.35.6-.91,0-1.25l-2.1-1.21c-.6-.34-1.57-.34-2.17,0l-2.11,1.22c-.6.35-.6.91,0,1.25l2.1,1.21c.6.34,1.57.34,2.17,0Zm-3.32.67l-2.1-1.21c-.6-.34-1.57-.34-2.17,0l-2.11,1.22c-.6.35-.6.91,0,1.25l2.1,1.21c.6.34,1.57.34,2.17,0l2.11-1.22c.6-.35.6-.91,0-1.25Zm-15.08,6.28l2.1,1.21c.6.34,1.57.34,2.17,0l5.37-3.1c.6-.35.6-.91,0-1.25l-2.1-1.21c-.6-.34-1.57-.34-2.17,0l-5.37,3.1c-.6.35-.6.91,0,1.25Zm79.2-37.51l-1.82-1.05c-.67-.39-1.77-.39-2.45,0l-9.68,5.59c-.68.39-.68,1.02,0,1.41l1.82,1.05c.67.39,1.77.39,2.45,0l9.68-5.59c.68-.39.68-1.02,0-1.41Zm-13.29,7.67l-1.82-1.05c-.67-.39-1.77-.39-2.45,0l-1.83,1.06c-.68.39-.68,1.02,0,1.41l1.82,1.05c.67.39,1.77.39,2.45,0l1.83-1.06c.68-.39.68-1.02,0-1.41Zm-5.44,3.14l-1.82-1.05c-.67-.39-1.77-.39-2.45,0l-1.83,1.06c-.68.39-.68,1.02,0,1.41l1.82,1.05c.67.39,1.77.39,2.45,0l1.83-1.06c.68-.39.68-1.02,0-1.41Zm-5.44,3.14l-1.82-1.05c-.67-.39-1.77-.39-2.45,0l-1.83,1.06c-.68.39-.68,1.02,0,1.41l1.82,1.05c.67.39,1.77.39,2.45,0l1.83-1.06c.68-.39.68-1.02,0-1.41Zm-5.44,3.14l-1.82-1.05c-.67-.39-1.77-.39-2.45,0l-1.83,1.06c-.68.39-.68,1.02,0,1.41l1.82,1.05c.67.39,1.77.39,2.45,0l1.83-1.06c.68-.39.68-1.02,0-1.41Zm-5.44,3.14l-1.82-1.05c-.67-.39-1.77-.39-2.45,0l-1.83,1.06c-.68.39-.68,1.02,0,1.41l1.82,1.05c.67.39,1.77.39,2.45,0l1.83-1.06c.68-.39.68-1.02,0-1.41Zm-5.44,3.14l-1.82-1.05c-.67-.39-1.77-.39-2.45,0l-1.83,1.06c-.68.39-.68,1.02,0,1.41l1.82,1.05c.67.39,1.77.39,2.45,0l1.83-1.06c.68-.39.68-1.02,0-1.41Zm-5.44,3.14l-1.82-1.05c-.67-.39-1.77-.39-2.45,0l-1.83,1.06c-.68.39-.68,1.02,0,1.41l1.82,1.05c.67.39,1.77.39,2.45,0l1.83-1.06c.68-.39.68-1.02,0-1.41Zm-5.44,3.14l-1.82-1.05c-.67-.39-1.77-.39-2.45,0l-1.83,1.06c-.68.39-.68,1.02,0,1.41l1.82,1.05c.67.39,1.77.39,2.45,0l1.83-1.06c.68-.39.68-1.02,0-1.41Zm-5.44,3.14l-1.82-1.05c-.67-.39-1.77-.39-2.45,0l-1.83,1.06c-.68.39-.68,1.02,0,1.41l1.82,1.05c.67.39,1.77.39,2.45,0l1.83-1.06c.68-.39.68-1.02,0-1.41Zm-5.44,3.14l-1.82-1.05c-.67-.39-1.77-.39-2.45,0l-1.83,1.06c-.68.39-.68,1.02,0,1.41l1.82,1.05c.67.39,1.77.39,2.45,0l1.83-1.06c.68-.39.68-1.02,0-1.41Zm-11.66,4.63l1.82,1.05c.67.39,1.77.39,2.45,0l1.83-1.06c.68-.39.68-1.02,0-1.41l-1.82-1.05c-.67-.39-1.77-.39-2.45,0l-1.83,1.06c-.68.39-.68,1.02,0,1.41Zm70.42-34.84l1.82,1.05c.67.39,1.77.39,2.45,0l4.24-2.45c.68-.39.68-1.02,0-1.41l-1.82-1.05c-.67-.39-1.77-.39-2.45,0l-4.24,2.45c-.68.39-.68,1.02,0,1.41Zm-5.44,3.14l1.82,1.05c.67.39,1.77.39,2.45,0l1.83-1.06c.68-.39.68-1.02,0-1.41l-1.82-1.05c-.67-.39-1.77-.39-2.45,0l-1.83,1.06c-.68.39-.68,1.02,0,1.41Zm-5.44,3.14l1.82,1.05c.67.39,1.77.39,2.45,0l1.83-1.06c.68-.39.68-1.02,0-1.41l-1.82-1.05c-.67-.39-1.77-.39-2.45,0l-1.83,1.06c-.68.39-.68,1.02,0,1.41Zm-38.08,21.98l1.82,1.05c.67.39,1.77.39,2.45,0l34.47-19.9c.68-.39.68-1.02,0-1.41l-1.82-1.05c-.67-.39-1.77-.39-2.45,0l-34.47,19.9c-.68.39-.68,1.02,0,1.41Zm-5.44,3.14l1.82,1.05c.67.39,1.77.39,2.45,0l1.83-1.06c.68-.39.68-1.02,0-1.41l-1.82-1.05c-.67-.39-1.77-.39-2.45,0l-1.83,1.06c-.68.39-.68,1.02,0,1.41Zm-5.44,3.14l1.82,1.05c.67.39,1.77.39,2.45,0l1.83-1.06c.68-.39.68-1.02,0-1.41l-1.82-1.05c-.67-.39-1.77-.39-2.45,0l-1.83,1.06c-.68.39-.68,1.02,0,1.41Zm-5.55,3.21l1.82,1.05c.67.39,1.77.39,2.45,0l1.83-1.06c.68-.39.68-1.02,0-1.41l-1.82-1.05c-.67-.39-1.77-.39-2.45,0l-1.83,1.06c-.68.39-.68,1.02,0,1.41Z" style="fill: #0d0026; stroke-width: 0px;"></path>
          <path d="m99.3,183.06l-1.83,1.06c-.68.39-1.77.39-2.45,0l-1.82-1.05c-.42-.24-.58-.59-.47-.9.06.18.22.36.47.5l1.82,1.05c.67.39,1.77.39,2.45,0l1.83-1.06c.25-.14.41-.32.47-.51.11.32-.05.66-.47.91Zm-1.47-5.7c-.06.16-.2.31-.41.43l-2.11,1.22c-.6.35-1.57.35-2.17,0l-2.1-1.21c-.21-.12-.34-.27-.4-.42-.12.29.02.6.4.82l2.1,1.21c.6.34,1.57.34,2.17,0l2.11-1.22c.39-.23.52-.54.41-.83Zm-3.49,7.93c-.07.19-.22.36-.47.51l-1.83,1.06c-.68.39-1.77.39-2.45,0l-1.82-1.05c-.25-.14-.4-.32-.47-.5-.11.32.04.66.47.9l1.82,1.05c.67.39,1.77.39,2.45,0l1.83-1.06c.43-.25.59-.59.47-.91Zm-10.88,6.28c-.07.19-.22.36-.47.51l-1.83,1.06c-.68.39-1.77.39-2.45,0l-1.82-1.05c-.25-.14-.4-.32-.47-.5-.11.32.04.66.47.9l1.82,1.05c.67.39,1.77.39,2.45,0l1.83-1.06c.43-.25.59-.59.47-.91Zm5.44-3.14c-.07.19-.22.36-.47.51l-1.83,1.06c-.68.39-1.77.39-2.45,0l-1.82-1.05c-.25-.14-.4-.32-.47-.5-.11.32.04.66.47.9l1.82,1.05c.67.39,1.77.39,2.45,0l1.83-1.06c.43-.25.59-.59.47-.91Zm-19.61,2.33l2.1,1.21c.6.34,1.57.34,2.17,0l2.11-1.22c.39-.23.52-.54.41-.83-.06.16-.2.31-.41.43l-2.11,1.22c-.6.35-1.57.35-2.17,0l-2.1-1.21c-.21-.12-.34-.27-.4-.42-.12.29.02.6.4.82Zm10.88-6.28l2.1,1.21c.6.34,1.57.34,2.17,0l2.11-1.22c.39-.23.52-.54.41-.83-.06.16-.2.31-.41.43l-2.11,1.22c-.6.35-1.57.35-2.17,0l-2.1-1.21c-.21-.12-.34-.27-.4-.42-.12.29.02.6.4.82Zm12.22-3.98c-.06.16-.2.31-.41.43l-2.11,1.22c-.6.35-1.57.35-2.17,0l-2.1-1.21c-.21-.12-.34-.27-.4-.42-.12.29.02.6.4.82l2.1,1.21c.6.34,1.57.34,2.17,0l2.11-1.22c.39-.23.52-.54.41-.83Zm-28.54,13.4l2.1,1.21c.6.34,1.57.34,2.17,0l2.11-1.22c.39-.23.52-.54.41-.83-.06.16-.2.31-.41.43l-2.11,1.22c-.6.35-1.57.35-2.17,0l-2.1-1.21c-.21-.12-.34-.27-.4-.42-.12.29.02.6.4.82Zm6.43,5.92l1.83-1.06c.43-.25.59-.59.47-.91-.07.19-.22.36-.47.51l-1.83,1.06c-.68.39-1.77.39-2.45,0l-1.82-1.05c-.25-.14-.4-.32-.47-.5-.11.32.04.66.47.9l1.82,1.05c.67.39,1.77.39,2.45,0Zm34.94-20.81c-.07.19-.22.36-.47.51l-1.83,1.06c-.68.39-1.77.39-2.45,0l-1.82-1.05c-.25-.14-.4-.32-.47-.5-.11.32.04.66.47.9l1.82,1.05c.67.39,1.77.39,2.45,0l1.83-1.06c.43-.25.59-.59.47-.91Zm-46.81,18.03l2.1,1.21c.6.34,1.57.34,2.17,0l2.11-1.22c.39-.23.52-.54.41-.83-.06.16-.2.31-.41.43l-2.11,1.22c-.6.35-1.57.35-2.17,0l-2.1-1.21c-.21-.12-.34-.27-.4-.42-.12.29.02.6.4.82Zm42.05-27.05c-.07.18-.22.35-.46.49l-1.88,1.09c-.66.38-1.74.39-2.4,0l-1.87-1.08c-.24-.14-.39-.31-.45-.49-.11.31.04.65.45.89l1.87,1.08c.66.38,1.73.38,2.4,0l1.88-1.09c.42-.24.57-.58.46-.89Zm-25.74,17.63l2.1,1.21c.6.34,1.57.34,2.17,0l2.11-1.22c.39-.23.52-.54.41-.83-.06.16-.2.31-.41.43l-2.11,1.22c-.6.35-1.57.35-2.17,0l-2.1-1.21c-.21-.12-.34-.27-.4-.42-.12.29.02.6.4.82Zm3.29,7.09c-.07.19-.22.36-.47.51l-1.83,1.06c-.68.39-1.77.39-2.45,0l-1.82-1.05c-.25-.14-.4-.32-.47-.5-.11.32.04.66.47.9l1.82,1.05c.67.39,1.77.39,2.45,0l1.83-1.06c.43-.25.59-.59.47-.91Zm-22.35-1.9l2.1,1.21c.6.34,1.57.34,2.17,0l2.11-1.22c.39-.23.52-.54.41-.83-.06.16-.2.31-.41.43l-2.11,1.22c-.6.35-1.57.35-2.17,0l-2.1-1.21c-.21-.12-.34-.27-.4-.42-.12.29.02.6.4.82Zm10.48-7.1c-.12.29.02.6.4.82l2.1,1.21c.6.34,1.57.34,2.17,0l2.11-1.22c.39-.23.52-.54.41-.83-.06.16-.2.31-.41.43l-2.11,1.22c-.6.35-1.57.35-2.17,0l-2.1-1.21c-.21-.12-.34-.27-.4-.42Zm2.88-7.44c-.11.31.04.65.45.89l1.87,1.08c.66.38,1.73.38,2.4,0l1.88-1.09c.42-.24.57-.58.46-.89-.07.18-.22.35-.46.49l-1.88,1.09c-.66.38-1.74.39-2.4,0l-1.87-1.08c-.24-.14-.39-.31-.45-.49Zm5.44-3.14c-.11.31.04.65.45.89l1.87,1.08c.66.38,1.73.38,2.4,0l1.88-1.09c.42-.24.57-.58.46-.89-.07.18-.22.35-.46.49l-1.88,1.09c-.66.38-1.74.39-2.4,0l-1.87-1.08c-.24-.14-.39-.31-.45-.49Zm-16.32,9.42c-.11.31.04.65.45.89l1.87,1.08c.66.38,1.73.38,2.4,0l1.88-1.09c.42-.24.57-.58.46-.89-.07.18-.22.35-.46.49l-1.88,1.09c-.66.38-1.74.39-2.4,0l-1.87-1.08c-.24-.14-.39-.31-.45-.49Zm5.44-3.14c-.11.31.04.65.45.89l1.87,1.08c.66.38,1.73.38,2.4,0l1.88-1.09c.42-.24.57-.58.46-.89-.07.18-.22.35-.46.49l-1.88,1.09c-.66.38-1.74.39-2.4,0l-1.87-1.08c-.24-.14-.39-.31-.45-.49Zm16.32-9.42c-.11.31.04.65.45.89l1.87,1.08c.66.38,1.73.38,2.4,0l1.88-1.09c.42-.24.57-.58.46-.89-.07.18-.22.35-.46.49l-1.88,1.09c-.66.38-1.74.39-2.4,0l-1.87-1.08c-.24-.14-.39-.31-.45-.49Zm5.44-3.14c-.11.31.04.65.45.89l1.87,1.08c.66.38,1.73.38,2.4,0l1.88-1.09c.42-.24.57-.58.46-.89-.07.18-.22.35-.46.49l-1.88,1.09c-.66.38-1.74.39-2.4,0l-1.87-1.08c-.24-.14-.39-.31-.45-.49Zm17.94-6.3c-.07.18-.22.35-.46.49l-1.88,1.09c-.66.38-1.74.39-2.4,0l-1.87-1.08c-.24-.14-.39-.31-.45-.49-.11.31.04.65.45.89l1.87,1.08c.66.38,1.73.38,2.4,0l1.88-1.09c.42-.24.57-.58.46-.89Zm-12.5,3.16c-.11.31.04.65.45.89l1.87,1.08c.66.38,1.73.38,2.4,0l1.88-1.09c.42-.24.57-.58.46-.89-.07.18-.22.35-.46.49l-1.88,1.09c-.66.38-1.74.39-2.4,0l-1.87-1.08c-.24-.14-.39-.31-.45-.49Zm-8.25,10.58c-.11.31.04.65.45.89l1.87,1.08c.66.38,1.73.38,2.4,0l1.88-1.09c.42-.24.57-.58.46-.89-.07.18-.22.35-.46.49l-1.88,1.09c-.66.38-1.74.39-2.4,0l-1.87-1.08c-.24-.14-.39-.31-.45-.49Zm-5.5,3.14c-.12.29.02.6.4.82l2.1,1.21c.6.34,1.57.34,2.17,0l2.11-1.22c.39-.23.52-.54.41-.83-.06.16-.2.31-.41.43l-2.11,1.22c-.6.35-1.57.35-2.17,0l-2.1-1.21c-.21-.12-.34-.27-.4-.42Zm-16.32,9.42c-.12.29.02.6.4.82l2.1,1.21c.6.34,1.57.34,2.17,0l2.11-1.22c.39-.23.52-.54.41-.83-.06.16-.2.31-.41.43l-2.11,1.22c-.6.35-1.57.35-2.17,0l-2.1-1.21c-.21-.12-.34-.27-.4-.42Zm10.88-6.28c-.12.29.02.6.4.82l2.1,1.21c.6.34,1.57.34,2.17,0l2.11-1.22c.39-.23.52-.54.41-.83-.06.16-.2.31-.41.43l-2.11,1.22c-.6.35-1.57.35-2.17,0l-2.1-1.21c-.21-.12-.34-.27-.4-.42Zm-18.88,5.12c-.11.31.04.65.45.89l1.87,1.08c.66.38,1.73.38,2.4,0l1.88-1.09c.42-.24.57-.58.46-.89-.07.18-.22.35-.46.49l-1.88,1.09c-.66.38-1.74.39-2.4,0l-1.87-1.08c-.24-.14-.39-.31-.45-.49Zm-2.48,8.27l2.1,1.21c.6.34,1.57.34,2.17,0l2.11-1.22c.39-.23.52-.54.41-.83-.06.16-.2.31-.41.43l-2.11,1.22c-.6.35-1.57.35-2.17,0l-2.1-1.21c-.21-.12-.34-.27-.4-.42-.12.29.02.6.4.82Zm-2.96-5.12c-.11.31.04.65.45.89l1.87,1.08c.66.38,1.73.38,2.4,0l1.88-1.09c.42-.24.57-.58.46-.89-.07.18-.22.35-.46.49l-1.88,1.09c-.66.38-1.74.39-2.4,0l-1.87-1.08c-.24-.14-.39-.31-.45-.49Zm47.76-17.7c-.07.18-.22.35-.46.49l-1.88,1.09c-.66.38-1.74.39-2.4,0l-1.87-1.08c-.24-.14-.39-.31-.45-.49-.11.31.04.65.45.89l1.87,1.08c.66.38,1.73.38,2.4,0l1.88-1.09c.42-.24.57-.58.46-.89Zm-34.46,28.79l1.82,1.05c.67.39,1.77.39,2.45,0l1.83-1.06c.43-.25.59-.59.47-.91-.07.19-.22.36-.47.51l-1.83,1.06c-.68.39-1.77.39-2.45,0l-1.82-1.05c-.25-.14-.4-.32-.47-.5-.11.32.04.66.47.9Zm42.7-27.69c-.06.16-.2.31-.41.43l-2.11,1.22c-.6.35-1.57.35-2.17,0l-2.1-1.21c-.21-.12-.34-.27-.4-.42-.12.29.02.6.4.82l2.1,1.21c.6.34,1.57.34,2.17,0l2.11-1.22c.39-.23.52-.54.41-.83Zm16.72-.8l1.82,1.05c.67.39,1.77.39,2.45,0l4.24-2.45c.43-.25.59-.59.47-.91-.07.19-.22.36-.47.51l-4.24,2.45c-.68.39-1.77.39-2.45,0l-1.82-1.05c-.25-.14-.4-.32-.47-.5-.11.32.04.66.47.9Zm-5.44,3.14l1.82,1.05c.67.39,1.77.39,2.45,0l1.83-1.06c.43-.25.59-.59.47-.91-.07.19-.22.36-.47.51l-1.83,1.06c-.68.39-1.77.39-2.45,0l-1.82-1.05c-.25-.14-.4-.32-.47-.5-.11.32.04.66.47.9Zm9.39-8.36c-.07.19-.22.36-.47.51l-9.68,5.59c-.68.39-1.77.39-2.45,0l-1.82-1.05c-.25-.14-.4-.32-.47-.5-.11.32.04.66.47.9l1.82,1.05c.67.39,1.77.39,2.45,0l9.68-5.59c.43-.25.59-.59.47-.91Zm-52.9,33.49l1.82,1.05c.67.39,1.77.39,2.45,0l34.47-19.9c.43-.25.59-.59.47-.91-.07.19-.22.36-.47.51l-34.47,19.9c-.68.39-1.77.39-2.45,0l-1.82-1.05c-.25-.14-.4-.32-.47-.5-.11.32.04.66.47.9Zm38.08-21.98l1.82,1.05c.67.39,1.77.39,2.45,0l1.83-1.06c.43-.25.59-.59.47-.91-.07.19-.22.36-.47.51l-1.83,1.06c-.68.39-1.77.39-2.45,0l-1.82-1.05c-.25-.14-.4-.32-.47-.5-.11.32.04.66.47.9Zm9.74-14.48c-.06.16-.2.31-.41.43l-6.82,3.94c-.6.35-1.57.35-2.17,0l-2.1-1.21c-.21-.12-.34-.27-.4-.42-.12.29.02.6.4.82l2.1,1.21c.6.34,1.57.34,2.17,0l6.82-3.94c.39-.23.52-.54.41-.83Zm-10.14-5.82c-.07.18-.22.35-.46.49l-1.88,1.09c-.66.38-1.74.39-2.4,0l-1.87-1.08c-.24-.14-.39-.31-.45-.49-.11.31.04.65.45.89l1.87,1.08c.66.38,1.73.38,2.4,0l1.88-1.09c.42-.24.57-.58.46-.89Zm5.04,2.91c-.07.18-.22.35-.46.49l-4.3,2.48c-.66.38-1.74.39-2.4,0l-1.87-1.08c-.24-.14-.39-.31-.45-.49-.11.31.04.65.45.89l1.87,1.08c.66.38,1.73.38,2.4,0l4.3-2.48c.42-.24.57-.58.46-.89Zm-74.92,39.16c-.12.29.02.6.4.82l2.1,1.21c.6.34,1.57.34,2.17,0l2.11-1.22c.39-.23.52-.54.41-.83-.06.16-.2.31-.41.43l-2.11,1.22c-.6.35-1.57.35-2.17,0l-2.1-1.21c-.21-.12-.34-.27-.4-.42Zm64.93-44.98c-.06.15-.19.29-.39.41l-4.59,2.65c-.58.34-1.53.34-2.11,0-.2-.12-.33-.26-.39-.41-.12.28,0,.59.39.8.58.33,1.52.33,2.11,0l4.59-2.65c.38-.22.51-.53.39-.81Zm-59.89,47.89c-.12.29.02.6.4.82l2.1,1.21c.6.34,1.57.34,2.17,0l5.37-3.1c.39-.23.52-.54.41-.83-.06.16-.2.31-.41.43l-5.37,3.1c-.6.35-1.57.35-2.17,0l-2.1-1.21c-.21-.12-.34-.27-.4-.42Zm-10.01-5.82c-.11.31.04.65.45.89l1.87,1.08c.66.38,1.73.38,2.4,0l4.3-2.48c.42-.24.57-.58.46-.89-.07.18-.22.35-.46.49l-4.3,2.48c-.66.38-1.74.39-2.4,0l-1.87-1.08c-.24-.14-.39-.31-.45-.49Zm31.74,6.26l1.82,1.05c.67.39,1.77.39,2.45,0l1.83-1.06c.43-.25.59-.59.47-.91-.07.19-.22.36-.47.51l-1.83,1.06c-.68.39-1.77.39-2.45,0l-1.82-1.05c-.25-.14-.4-.32-.47-.5-.11.32.04.66.47.9Zm-34.7-7.92c-.12.28,0,.59.39.8.58.33,1.52.33,2.11,0l2.17-1.25c.38-.22.51-.53.39-.81-.06.15-.19.29-.39.41l-2.17,1.25c-.58.34-1.53.34-2.11,0-.2-.12-.33-.26-.39-.41Zm29.26,11.06l1.82,1.05c.67.39,1.77.39,2.45,0l1.83-1.06c.43-.25.59-.59.47-.91-.07.19-.22.36-.47.51l-1.83,1.06c-.68.39-1.77.39-2.45,0l-1.82-1.05c-.25-.14-.4-.32-.47-.5-.11.32.04.66.47.9Zm-6.02,2.3c-.11.32.04.66.47.9l1.82,1.05c.67.39,1.77.39,2.45,0l1.83-1.06c.43-.25.59-.59.47-.91-.07.19-.22.36-.47.51l-1.83,1.06c-.68.39-1.77.39-2.45,0l-1.82-1.05c-.25-.14-.4-.32-.47-.5Zm-5.04-2.91c-.11.32.04.66.47.9l1.82,1.05c.67.39,1.77.39,2.45,0l1.83-1.06c.43-.25.59-.59.47-.91-.07.19-.22.36-.47.51l-1.83,1.06c-.68.39-1.77.39-2.45,0l-1.82-1.05c-.25-.14-.4-.32-.47-.5Zm8.73-24.35c-.06.15-.19.29-.39.41l-2.17,1.25c-.58.34-1.53.34-2.11,0-.2-.12-.33-.26-.39-.41-.12.28,0,.59.39.8.58.33,1.52.33,2.11,0l2.17-1.25c.38-.22.51-.53.39-.81Zm-13.04,16.08l2.1,1.21c.6.34,1.57.34,2.17,0l2.11-1.22c.39-.23.52-.54.41-.83-.06.16-.2.31-.41.43l-2.11,1.22c-.6.35-1.57.35-2.17,0l-2.1-1.21c-.21-.12-.34-.27-.4-.42-.12.29.02.6.4.82Zm-2.51-4.24l1.87,1.08c.66.38,1.73.38,2.4,0l1.88-1.09c.42-.24.57-.58.46-.89-.07.18-.22.35-.46.49l-1.88,1.09c-.66.38-1.74.39-2.4,0l-1.87-1.08c-.24-.14-.39-.31-.45-.49-.11.31.04.65.45.89Zm-.77-2.42c-.06.15-.19.29-.39.41l-2.17,1.25c-.58.34-1.53.34-2.11,0-.2-.12-.33-.26-.39-.41-.12.28,0,.59.39.8.58.33,1.52.33,2.11,0l2.17-1.25c.38-.22.51-.53.39-.81Zm11.46,7.75l2.1,1.21c.6.34,1.57.34,2.17,0l2.11-1.22c.39-.23.52-.54.41-.83-.06.16-.2.31-.41.43l-2.11,1.22c-.6.35-1.57.35-2.17,0l-2.1-1.21c-.21-.12-.34-.27-.4-.42-.12.29.02.6.4.82Zm55.74-29.1c-.06.16-.2.31-.41.43l-2.11,1.22c-.6.35-1.57.35-2.17,0l-2.1-1.21c-.21-.12-.34-.27-.4-.42-.12.29.02.6.4.82l2.1,1.21c.6.34,1.57.34,2.17,0l2.11-1.22c.39-.23.52-.54.41-.83Zm-53.58,33.97l1.82,1.05c.67.39,1.77.39,2.45,0l1.83-1.06c.43-.25.59-.59.47-.91-.07.19-.22.36-.47.51l-1.83,1.06c-.68.39-1.77.39-2.45,0l-1.82-1.05c-.25-.14-.4-.32-.47-.5-.11.32.04.66.47.9Zm40.78-44.02c-.06.15-.19.29-.39.41l-2.17,1.25c-.58.34-1.53.34-2.11,0-.2-.12-.33-.26-.39-.41-.12.28,0,.59.39.81.58.33,1.52.33,2.11,0l2.17-1.25c.38-.22.51-.53.39-.81Zm14.75,14.84c-.07.19-.22.36-.47.51l-1.83,1.06c-.68.39-1.77.39-2.45,0l-1.82-1.05c-.25-.14-.4-.32-.47-.5-.11.32.04.66.47.9l1.82,1.05c.67.39,1.77.39,2.45,0l1.83-1.06c.43-.25.59-.59.47-.91Zm-63.7,13.42c-.06.15-.19.29-.39.41l-2.17,1.25c-.58.34-1.53.34-2.11,0-.2-.12-.33-.26-.39-.41-.12.28,0,.59.39.81.58.33,1.52.33,2.11,0l2.17-1.25c.38-.22.51-.53.39-.81Zm27.2-15.7c-.06.15-.19.29-.39.41l-2.17,1.25c-.58.34-1.53.34-2.11,0-.2-.12-.33-.26-.39-.41-.12.28,0,.59.39.8.58.33,1.52.33,2.11,0l2.17-1.25c.38-.22.51-.53.39-.81Zm10.88-6.28c-.06.15-.19.29-.39.41l-2.17,1.25c-.58.34-1.53.34-2.11,0-.2-.12-.33-.26-.39-.41-.12.28,0,.59.39.81.58.33,1.52.33,2.11,0l2.17-1.25c.38-.22.51-.53.39-.81Zm-5.44,3.14c-.06.15-.19.29-.39.41l-2.17,1.25c-.58.34-1.53.34-2.11,0-.2-.12-.33-.26-.39-.41-.12.28,0,.59.39.81.58.33,1.52.33,2.11,0l2.17-1.25c.38-.22.51-.53.39-.81Zm10.88-6.28c-.06.15-.19.29-.39.41l-2.17,1.25c-.58.34-1.53.34-2.11,0-.2-.12-.33-.26-.39-.41-.12.28,0,.59.39.81.58.33,1.52.33,2.11,0l2.17-1.25c.38-.22.51-.53.39-.81Zm-21.76,12.56c-.06.15-.19.29-.39.41l-2.17,1.25c-.58.34-1.53.34-2.11,0-.2-.12-.33-.26-.39-.41-.12.28,0,.59.39.81.58.33,1.52.33,2.11,0l2.17-1.25c.38-.22.51-.53.39-.81Zm37.2-9.88c-.07.18-.22.35-.46.49l-1.88,1.09c-.66.38-1.74.39-2.4,0l-1.87-1.08c-.24-.14-.39-.31-.45-.49-.11.31.04.65.45.89l1.87,1.08c.66.38,1.73.38,2.4,0l1.88-1.09c.42-.24.57-.58.46-.89Zm-42.63,13.02c-.06.15-.19.29-.39.41l-2.17,1.25c-.58.34-1.53.34-2.11,0-.2-.12-.33-.26-.39-.41-.12.28,0,.59.39.8.58.33,1.52.33,2.11,0l2.17-1.25c.38-.22.51-.53.39-.81Zm-10.88,6.28c-.06.15-.19.29-.39.41l-2.17,1.25c-.58.34-1.53.34-2.11,0-.2-.12-.33-.26-.39-.41-.12.28,0,.59.39.8.58.33,1.52.33,2.11,0l2.17-1.25c.38-.22.51-.53.39-.81Z" style="fill: url(#Dégradé_sans_nom_28-7); stroke-width: 0px;"></path>
        </g>
        <polygon points="13.67 157.09 96.77 109.34 96.77 78.22 13.67 125.97 13.67 157.09" style="fill: url(#Dégradé_sans_nom_15-2); stroke-width: 0px;"></polygon>
        <path d="m26.32,114.77c0-.96-.68-1.35-1.52-.87-.84.49-1.52,1.66-1.52,2.62s.68,1.35,1.52.87c.84-.49,1.52-1.66,1.52-2.62Z" style="fill: #2f00eb; stroke-width: 0px;"></path>
        <path d="m21.52,117.45c0-.96-.68-1.35-1.52-.87-.84.49-1.52,1.66-1.52,2.62s.68,1.35,1.52.87c.84-.49,1.52-1.66,1.52-2.62Z" style="fill: #674dff; stroke-width: 0px;"></path>
        <path d="m16.68,120.19c0-.96-.68-1.35-1.52-.87-.84.49-1.52,1.66-1.52,2.62s.68,1.35,1.52.87c.84-.49,1.52-1.66,1.52-2.62Z" style="fill: #53d6e2; stroke-width: 0px;"></path>
        <polygon points="88.65 77.82 97.17 72.91 97.17 75.23 88.65 80.14 88.65 77.82" style="fill: #b33eff; stroke-width: 0px;"></polygon>
        <polygon points="77.8 84.18 86.32 79.26 86.32 81.58 77.8 86.5 77.8 84.18" style="fill: #b33eff; stroke-width: 0px;"></polygon>
        <path d="m93.95,114.16c-.07,0-.15.02-.21.06l-.66.38c-.4.23-.83.48-.83.48-.21.12-.28.38-.16.59.08.14.22.21.37.21.07,0,.15-.02.22-.06l1.49-.87c.21-.12.28-.38.16-.59-.08-.14-.22-.21-.37-.21h0Zm-2.98,1.73c-.07,0-.15.02-.22.06l-1.49.87c-.21.12-.28.38-.16.59.08.14.22.21.37.21.07,0,.15-.02.22-.06l1.49-.87c.21-.12.28-.38.16-.59-.08-.14-.22-.21-.37-.21h0Zm-2.98,1.73c-.07,0-.15.02-.21.06l-1.49.87c-.2.12-.27.38-.15.59.08.14.22.21.37.21.07,0,.15-.02.22-.06l1.49-.87c.21-.12.28-.38.16-.59-.08-.14-.22-.21-.37-.21h0Zm-2.98,1.73c-.07,0-.15.02-.22.06l-1.49.87c-.21.12-.28.38-.16.59.08.14.22.21.37.21.07,0,.15-.02.22-.06l1.49-.87c.21-.12.28-.38.16-.59-.08-.14-.22-.21-.37-.21h0Zm-2.98,1.73c-.07,0-.15.02-.22.06,0,0-.32.19-.67.39h0s0,0,0,0h-.02s0,0,0,0l-.8.47c-.2.12-.27.38-.15.59.08.14.22.21.37.21.07,0,.15-.02.22-.06l1.49-.87c.21-.12.28-.38.16-.59-.08-.14-.22-.21-.37-.21h0Zm-2.98,1.73c-.07,0-.15.02-.22.06l-.76.44s0,0,0,0h0c-.37.21-.73.42-.73.42-.21.12-.28.38-.16.59.08.14.22.21.37.21.07,0,.15-.02.22-.06l1.49-.87c.21-.12.28-.38.16-.59-.08-.14-.22-.21-.37-.21h0Zm-2.98,1.73c-.07,0-.15.02-.22.06,0,0-.42.24-.81.47h0s0,0,0,0h0s0,0,0,0h0s0,0,0,0h-.02s0,.01,0,.01l-.63.37c-.2.12-.27.38-.15.59.08.14.22.21.37.21.07,0,.15-.02.22-.06l1.49-.87c.21-.12.28-.38.16-.59-.08-.14-.22-.21-.37-.21h0Zm-2.98,1.73c-.07,0-.15.02-.22.06l-1.49.87c-.2.12-.27.38-.15.59.08.14.22.21.37.21.07,0,.15-.02.22-.06l1.49-.87c.21-.12.28-.38.16-.59-.08-.14-.22-.21-.37-.21h0Zm-1.67,1.99c-.24,0-.43.19-.43.43v1.72c0,.24.19.43.43.43s.43-.19.43-.43v-1.72c0-.24-.19-.43-.43-.43h0Zm0,3.45c-.24,0-.43.19-.43.43v1.72c0,.24.19.43.43.43s.43-.19.43-.43v-1.72c0-.24-.19-.43-.43-.43h0Zm0,3.45c-.24,0-.43.19-.43.43v1.72c0,.24.19.43.43.43s.43-.19.43-.43v-1.72c0-.24-.19-.43-.43-.43h0Zm0,3.45c-.24,0-.43.19-.43.43v1.72c0,.24.19.43.43.43s.43-.19.43-.43v-1.72c0-.24-.19-.43-.43-.43h0Zm0,3.45c-.24,0-.43.19-.43.43v1.72c0,.24.19.43.43.43s.43-.19.43-.43v-1.72c0-.24-.19-.43-.43-.43h0Zm0,3.45c-.24,0-.43.19-.43.43v1.72c0,.24.19.43.43.43s.43-.19.43-.43v-1.72c0-.24-.19-.43-.43-.43h0Zm0,3.45c-.24,0-.43.19-.43.43v1.72c0,.24.19.43.43.43s.43-.19.43-.43v-1.72c0-.24-.19-.43-.43-.43h0Zm.59,2.65c-.07,0-.15.02-.22.06l-.8.47v1h0l1.24-.72c.2-.12.27-.38.15-.59-.08-.14-.22-.21-.37-.21h0Zm2.98-1.73c-.07,0-.15.02-.22.06l-1.49.87c-.21.12-.28.38-.16.59.08.14.22.21.37.21.07,0,.15-.02.22-.06,0,0,1.39-.81,1.48-.86h0s0,0,0,0h0s0,0,0,0h0s0,0,0,0h0s0,0,0,0c.21-.12.28-.38.16-.59-.08-.14-.22-.21-.37-.21h0Zm2.98-1.73c-.07,0-.15.02-.22.06l-1.49.87c-.21.12-.28.38-.16.59.08.14.22.21.37.21.07,0,.15-.02.22-.06,0,0,.06-.03.15-.09h0s0,0,0,0l1.34-.78c.2-.12.27-.38.15-.59-.08-.14-.22-.21-.37-.21h0Zm2.98-1.73c-.07,0-.15.02-.22.06l-1.49.87c-.21.12-.28.38-.16.59.08.14.22.21.37.21.07,0,.15-.02.21-.06l.59-.34c.42-.24.9-.52.9-.52.21-.12.28-.38.16-.59-.08-.14-.22-.21-.37-.21h0Zm2.98-1.73c-.07,0-.15.02-.22.06l-1.49.87c-.21.12-.28.38-.16.59.08.14.22.21.37.21.07,0,.15-.02.22-.06l1.49-.87c.21-.12.28-.38.16-.59-.08-.14-.22-.21-.37-.21h0Zm2.98-1.73c-.07,0-.15.02-.22.06l-1.49.87c-.21.12-.28.38-.16.59.08.14.22.21.37.21.07,0,.15-.02.22-.06l1.49-.87c.2-.12.27-.38.15-.59-.08-.14-.22-.21-.37-.21h0Zm2.98-1.73c-.07,0-.15.02-.22.06l-1.49.87c-.21.12-.28.38-.16.59.08.14.22.21.37.21.07,0,.15-.02.22-.06l1.49-.87c.21-.12.28-.38.16-.59-.08-.14-.22-.21-.37-.21h0Zm2.98-1.73c-.07,0-.15.02-.22.06l-1.49.87c-.21.12-.28.38-.16.59.08.14.22.21.37.21.07,0,.15-.02.22-.06l1.49-.87c.2-.12.27-.38.15-.59-.08-.14-.22-.21-.37-.21h0Zm2.98-1.73c-.07,0-.15.02-.22.06l-1.49.87c-.21.12-.28.38-.16.59.08.14.22.21.37.21.07,0,.15-.02.22-.06l.56-.33s0,0,0,0h0s0,0,0,0h0s0,0,0,0h0s.01,0,.02-.01h0s.01,0,.02,0h0c.41-.24.88-.51.88-.51.21-.12.28-.38.16-.59-.08-.14-.22-.21-.37-.21h0Zm.43-2.7c-.24,0-.43.19-.43.43v1.72c0,.24.19.43.43.43s.43-.19.43-.43v-1.72c0-.24-.19-.43-.43-.43h0Zm0-3.45c-.24,0-.43.19-.43.43v1.72c0,.24.19.43.43.43s.43-.19.43-.43v-1.72c0-.24-.19-.43-.43-.43h0Zm0-3.45c-.24,0-.43.19-.43.43v1.72c0,.24.19.43.43.43s.43-.19.43-.43v-1.72c0-.24-.19-.43-.43-.43h0Zm0-3.45c-.24,0-.43.19-.43.43v1.72c0,.24.19.43.43.43s.43-.19.43-.43v-1.72c0-.24-.19-.43-.43-.43h0Zm0-3.45c-.24,0-.43.19-.43.43v1.72c0,.24.19.43.43.43s.43-.19.43-.43v-1.72c0-.24-.19-.43-.43-.43h0Zm0-3.45c-.24,0-.43.19-.43.43v1.72c0,.24.19.43.43.43s.43-.19.43-.43v-1.72c0-.24-.19-.43-.43-.43h0Zm0-3.45c-.24,0-.43.19-.43.43v1.72c0,.24.19.43.43.43s.43-.19.43-.43v-1.72c0-.24-.19-.43-.43-.43h0Zm.43-1.88l-.86.5h0c-.33.19-.63.37-.63.37-.21.12-.28.38-.16.59.08.14.22.21.37.21.07,0,.15-.02.22-.06l1.06-.61v-1h0Z" style="fill: #b33eff; stroke-width: 0px;"></path>
        <polygon points="42.39 157.34 68.09 142.38 68.09 129.33 42.39 144.3 42.39 157.34" style="fill: #b33eff; stroke-width: 0px;"></polygon>
        <g>
          <polygon points="42.41 162.04 68 147.15 68 144.84 42.41 159.74 42.41 162.04" style="fill: #fff; stroke-width: 0px;"></polygon>
          <polygon points="42.41 164.65 68 149.75 68 148.7 42.41 163.6 42.41 164.65" style="fill: #fff; stroke-width: 0px;"></polygon>
          <polygon points="42.41 166.84 68 151.94 68 150.89 42.41 165.79 42.41 166.84" style="fill: #fff; stroke-width: 0px;"></polygon>
          <polygon points="42.41 169.03 68 154.13 68 153.09 42.41 167.98 42.41 169.03" style="fill: #fff; stroke-width: 0px;"></polygon>
        </g>
        <polygon points="13.82 174.28 39.52 159.32 39.52 146.27 13.82 161.23 13.82 174.28" style="fill: #b33eff; stroke-width: 0px;"></polygon>
        <g>
          <polygon points="13.85 178.98 39.43 164.08 39.43 161.78 13.85 176.68 13.85 178.98" style="fill: #fff; stroke-width: 0px;"></polygon>
          <polygon points="13.85 181.59 39.43 166.69 39.43 165.64 13.85 180.54 13.85 181.59" style="fill: #fff; stroke-width: 0px;"></polygon>
          <polygon points="13.85 183.78 39.43 168.88 39.43 167.83 13.85 182.73 13.85 183.78" style="fill: #fff; stroke-width: 0px;"></polygon>
          <polygon points="13.85 185.97 39.43 171.07 39.43 170.02 13.85 184.92 13.85 185.97" style="fill: #fff; stroke-width: 0px;"></polygon>
        </g>
        <g>
          <polygon points="42 121.78 67.59 106.88 67.59 104.58 42 119.47 42 121.78" style="fill: #fff; stroke-width: 0px;"></polygon>
          <polygon points="36.41 128.01 73.89 106.2 73.89 105.15 36.41 126.97 36.41 128.01" style="fill: #fff; stroke-width: 0px;"></polygon>
        </g>
        <path d="m48.12,133.29l14.14-8.13c.99-.57,1.8-2.12,1.8-3.44v-1.95c0-1.32-.81-1.93-1.8-1.36l-14.14,8.13c-.99.57-1.8,2.12-1.8,3.44v1.95c0,1.32.81,1.93,1.8,1.36Z" style="fill: #2f00eb; stroke-width: 0px;"></path>
        <g>
          <path d="m358.45,280.94l-44.57-25.69c-3.9-2.25-7.07-8.3-7.07-13.5v-92.13c0-2.65-2.18-3.23-.86-4.18.05-.04,3.09-1.42,3.15-1.44,1.42-.54,2.94-.79,4.78.28l44.57,25.69c3.9,2.25,7.07,8.3,7.07,13.5v92.13c0,2.76-.89,4.74-2.32,5.64-.08.05-3.74,1.79-3.84,1.83-1.26.42.79-1.14-.91-2.12Z" style="fill: #390082; stroke-width: 0px;"></path>
          <path d="m358.13,170.07l-44.57-25.69c-1.84-1.06,42.66,26.32,42.66,26.32,3.9,2.25,7.07,8.3,7.07,13.5,0,0,1.91,94.26,1.91,91.5v-92.13c0-5.2-3.16-11.25-7.07-13.5Z" style="fill: #6400cb; stroke-width: 0px;"></path>
          <path d="m355.76,282.17l-44.57-25.69c-3.9-2.25-7.07-8.3-7.07-13.5v-92.13c0-5.2,3.16-7.59,7.07-5.34l44.57,25.69c3.9,2.25,7.07,8.3,7.07,13.5v92.13c0,5.2-3.16,7.59-7.07,5.34Z" style="fill: url(#Dégradé_sans_nom_28-8); stroke-width: 0px;"></path>
          <path d="m355.15,282.51l-44.57-25.69c-3.9-2.25-7.07-8.3-7.07-13.5v-92.13c0-5.2,3.16-7.59,7.07-5.34l44.57,25.69c3.9,2.25,7.07,8.3,7.07,13.5v92.13c0,5.2-3.16,7.59-7.07,5.34Z" style="fill: #1a0044; stroke-width: 0px;"></path>
          <path d="m304.48,243.93v-92.25c0-4.56,2.77-6.66,6.19-4.68l44.39,25.58c3.42,1.98,6.19,7.27,6.19,11.84v92.25c0,4.56-2.77,6.66-6.19,4.68l-44.39-25.58c-3.42-1.98-6.19-7.27-6.19-11.84Z" style="fill: #1a0044; stroke-width: 0px;"></path>
          <path d="m355.87,182.28l-45.64-26.3c-.53-.31-1.19.08-1.19.69v83.33c0,.59.31,1.13.82,1.42l45.64,26.3c.53.31,1.19-.08,1.19-.69v-83.33c0-.59-.31-1.13-.82-1.42Z" style="fill: url(#linear-gradient-4); stroke-width: 0px;"></path>
          <path d="m356.32,267.45l-45.64-26.3c-.51-.29-.82-.84-.82-1.42v-83.33c0-.19.07-.36.18-.49-.49-.13-1,.23-1,.77v83.33c0,.59.31,1.13.82,1.42l45.64,26.3c.36.21.78.09,1.01-.2-.06-.02-.13-.04-.19-.08Z" style="fill: url(#Dégradé_sans_nom_28-9); stroke-width: 0px;"></path>
          <path d="m335,262.48c0,1.69-1.19,2.37-2.67,1.52-1.47-.85-2.67-2.91-2.67-4.6s1.19-2.37,2.67-1.52,2.67,2.91,2.67,4.6Z" style="fill: #6400cb; stroke-width: 0px;"></path>
          <path d="m334.3,262.08c0,1.25-.88,1.75-1.97,1.12s-1.97-2.15-1.97-3.4.88-1.75,1.97-1.12,1.97,2.15,1.97,3.4Z" style="fill: #1a0044; stroke-width: 0px;"></path>
          <path d="m339.46,169.23l-9.58-5.53c-.43-.25-.78-.92-.78-1.49h0c0-.57.35-.84.78-.59l9.58,5.53c.43.25.78.92.78,1.49h0c0,.57-.35.84-.78.59Z" style="fill: #6400cb; stroke-width: 0px;"></path>
        </g>
        <g>
          <polygon points="354.63 220.93 312.3 196.58 312.3 165.64 354.63 189.99 354.63 220.93" style="fill: url(#Dégradé_sans_nom_15-3); stroke-width: 0px;"></polygon>
          <g style="mix-blend-mode: screen; opacity: .5;">
            <path d="m312.3,227.06v.4h0v.57h0v.75c0,.24.19.43.43.43s.43-.19.43-.43v-.23l.74.43c.07.04.14.06.21.06.15,0,.29-.08.37-.22.12-.21.05-.47-.16-.59l-.5-.29h0s0,0,0,0c-.22-.13-.47-.27-.66-.38h0l-.86-.5h0Zm.43,3.01c-.24,0-.43.19-.43.43v1.72c0,.24.19.43.43.43s.43-.19.43-.43v-1.72c0-.24-.19-.43-.43-.43h0Zm0,3.45c-.24,0-.43.19-.43.43v1.72c0,.24.19.43.43.43s.43-.19.43-.43v-1.72c0-.24-.19-.43-.43-.43h0Zm0,3.45c-.24,0-.43.19-.43.43v1.72c0,.24.19.43.43.43s.43-.19.43-.43v-1.72c0-.24-.19-.43-.43-.43h0Zm.78,2.5c-.15,0-.29.08-.37.22-.12.21-.05.47.16.59l1.5.86c.07.04.14.06.21.06.15,0,.29-.08.37-.22.12-.21.05-.47-.16-.59l-1.49-.86c-.07-.04-.14-.06-.21-.06h0Zm2.99,1.72c-.15,0-.29.08-.37.22-.12.21-.05.47.16.59l1.49.86c.07.04.14.06.21.06.15,0,.29-.08.37-.22.12-.21.05-.47-.16-.59l-1.49-.86c-.07-.04-.14-.06-.21-.06h0Zm2.99,1.72c-.15,0-.29.08-.37.22-.12.21-.05.47.16.59l1.49.86c.07.04.14.06.21.06.15,0,.29-.08.37-.22.12-.21.05-.47-.16-.59l-1.49-.86c-.07-.04-.14-.06-.21-.06h0Zm2.99,1.72c-.15,0-.29.08-.37.22-.12.21-.05.47.16.59,0,0,.26.15.57.33l.93.53c.07.04.14.06.21.06.15,0,.29-.08.37-.22.12-.21.05-.47-.16-.59l-1.49-.86c-.07-.04-.14-.06-.21-.06h0Zm2.99,1.72c-.15,0-.29.08-.37.22-.12.21-.05.47.16.59l1.49.86c.07.04.14.06.21.06.15,0,.29-.08.37-.22.12-.21.05-.47-.16-.59l-1.49-.86c-.07-.04-.14-.06-.21-.06h0Zm2.99,1.72c-.15,0-.29.08-.37.22-.12.21-.05.47.16.59,0,0,.39.23.78.45l.72.41c.07.04.14.06.21.06.15,0,.29-.08.37-.22.12-.21.05-.47-.16-.59l-1.49-.86c-.07-.04-.14-.06-.21-.06h0Zm2.99,1.72c-.15,0-.29.08-.37.22-.12.21-.05.47.16.59l1.49.86c.07.04.14.06.21.06.15,0,.29-.08.37-.22.12-.21.05-.47-.16-.59l-1.49-.86c-.07-.04-.14-.06-.21-.06h0Zm2.99,1.72c-.15,0-.29.08-.37.22-.12.21-.05.47.16.59l.86.5s0,0,0,0h0s0,0,0,0h0s0,0,0,0h0c.32.19.61.35.61.35.07.04.14.06.21.06.15,0,.29-.08.37-.22.12-.21.05-.47-.16-.59l-1.49-.86c-.07-.04-.14-.06-.21-.06h0Zm2.99,1.72c-.15,0-.29.08-.37.22-.12.21-.05.47.16.59,0,0,.44.26.85.49h0s0,0,0,0l.64.37c.07.04.14.06.21.06.15,0,.29-.08.37-.22.12-.21.05-.47-.16-.59l-1.49-.86c-.07-.04-.14-.06-.21-.06h0Zm2.99,1.72c-.15,0-.29.08-.37.22-.12.21-.05.47.16.59l.48.28c.44.25,1.01.58,1.01.58.07.04.14.06.21.06.15,0,.29-.08.37-.22.12-.21.05-.47-.16-.59l-1.49-.86c-.07-.04-.14-.06-.21-.06h0Zm2.99,1.72c-.15,0-.29.08-.37.22-.12.21-.05.47.16.59,0,0,1.04.6,1.39.8h0s0,0,0,0h0s0,0,0,0h0s0,0,0,0l.09.05c.07.04.14.06.21.06.15,0,.29-.08.37-.22.12-.21.05-.47-.16-.59l-1.49-.86c-.07-.04-.14-.06-.21-.06h0Zm2.99,1.72c-.15,0-.29.08-.37.22-.12.21-.05.47.16.59l.08.05s0,0,0,0h0s0,0,0,0h0s0,0,0,0h0c.33.19,1.39.8,1.39.8.07.04.14.06.21.06.15,0,.29-.08.37-.22.12-.21.05-.47-.16-.59l-1.49-.86c-.07-.04-.14-.06-.21-.06h0Zm2.99,1.72c-.15,0-.29.08-.37.22-.12.21-.05.47.16.59l1.19.68s0,0,0,0h0s0,0,0,0h0c.17.1.3.17.3.17.07.04.14.06.21.06.15,0,.29-.08.37-.22.12-.21.05-.47-.16-.59l-1.49-.86c-.07-.04-.14-.06-.21-.06h0Zm4.85,1.26c-.24,0-.43.19-.43.43v.78l-1.22-.7c-.07-.04-.14-.06-.21-.06-.15,0-.29.08-.37.22-.12.21-.05.47.16.59,0,0,.18.11.42.24l1.07.62s.1.05.15.05c0,.01,0,.03,0,.04l.59.34c.16-.06.27-.22.27-.4v-1.72c0-.24-.19-.43-.43-.43h0Zm0-3.45c-.24,0-.43.19-.43.43v1.72c0,.24.19.43.43.43s.43-.19.43-.43v-1.72c0-.24-.19-.43-.43-.43h0Zm0-3.45c-.24,0-.43.19-.43.43v1.72c0,.24.19.43.43.43s.43-.19.43-.43v-1.72c0-.24-.19-.43-.43-.43h0Zm-.2-3.4c-.14.07-.23.22-.23.38v1.72c0,.24.19.43.43.43s.43-.19.43-.43v-1.72s0-.01,0-.02l-.63-.36h0Zm-2.55-1.4c-.15,0-.29.08-.37.22-.12.21-.05.47.16.59l1.49.86c.07.04.14.06.21.06.15,0,.29-.08.37-.22.12-.21.05-.47-.16-.59,0,0-.66-.38-1.1-.64h0s0,0,0,0l-.38-.22c-.07-.04-.14-.06-.21-.06h0Zm-2.99-1.72c-.15,0-.29.08-.37.22-.12.21-.05.47.16.59l1.49.86c.07.04.14.06.21.06.15,0,.29-.08.37-.22.12-.21.05-.47-.16-.59l-.27-.16c-.43-.25-1.22-.7-1.22-.7-.07-.04-.14-.06-.21-.06h0Zm-2.99-1.72c-.15,0-.29.08-.37.22-.12.21-.05.47.16.59l1.49.86c.07.04.14.06.21.06.15,0,.29-.08.37-.22.12-.21.05-.47-.16-.59l-1.38-.79s0,0,0,0h0s0,0,0,0h0c-.07-.04-.11-.06-.11-.06-.07-.04-.14-.06-.21-.06h0Zm-2.99-1.72c-.15,0-.29.08-.37.22-.12.21-.05.47.16.59l1.49.86c.07.04.14.06.21.06.15,0,.29-.08.37-.22.12-.21.05-.47-.16-.59l-1.49-.86c-.07-.04-.14-.06-.21-.06h0Zm-2.99-1.72c-.15,0-.29.08-.37.22-.12.21-.05.47.16.59l1.49.86c.07.04.14.06.21.06.15,0,.29-.08.37-.22.12-.21.05-.47-.16-.59l-.93-.53s0,0,0,0h0s0,0,0,0h0s0,0,0,0h0s0,0,0,0h0s0,0,0,0h0s0,0,0,0h0c-.29-.17-.54-.31-.54-.31-.07-.04-.14-.06-.21-.06h0Zm-2.99-1.72c-.15,0-.29.08-.37.22-.12.21-.05.47.16.59l1.49.86c.07.04.14.06.21.06.15,0,.29-.08.37-.22.12-.21.05-.47-.16-.59,0,0-.36-.2-.72-.41h0s0,0,0,0h0s0,0,0,0h0s0,0,0,0l-.75-.43c-.07-.04-.14-.06-.21-.06h0Zm-2.99-1.72c-.15,0-.29.08-.37.22-.12.21-.05.47.16.59l1.49.86c.07.04.14.06.21.06.15,0,.29-.08.37-.22.12-.21.05-.47-.16-.59l-.52-.3s0,0,0,0h0s0,0,0,0h0s0,0,0,0h-.01c-.43-.25-.95-.55-.95-.55-.07-.04-.14-.06-.21-.06h0Zm-2.99-1.72c-.15,0-.29.08-.37.22-.12.21-.05.47.16.59l1.49.86c.07.04.14.06.21.06.15,0,.29-.08.37-.22.12-.21.05-.47-.16-.59,0,0-.8-.46-1.23-.71h0s0,0,0,0h-.01s0,0,0,0l-.24-.14c-.07-.04-.14-.06-.21-.06h0Zm-2.99-1.72c-.15,0-.29.08-.37.22-.12.21-.05.47.16.59l1.49.86c.07.04.14.06.21.06.15,0,.29-.08.37-.22.12-.21.05-.47-.16-.59l-.18-.1s0,0,0,0h0s0,0,0,0h0c-.4-.23-1.31-.75-1.31-.75-.07-.04-.14-.06-.21-.06h0Zm-2.99-1.72c-.15,0-.29.08-.37.22-.12.21-.05.47.16.59l1.49.86c.07.04.14.06.21.06.15,0,.29-.08.37-.22.12-.21.05-.47-.16-.59l-1.28-.74s0,0,0,0h0c-.13-.07-.21-.12-.21-.12-.07-.04-.14-.06-.21-.06h0Zm-2.99-1.72c-.15,0-.29.08-.37.22-.12.21-.05.47.16.59l1.49.86c.07.04.14.06.21.06.15,0,.29-.08.37-.22.12-.21.05-.47-.16-.59,0,0-.12-.07-.28-.16h0s0,0,0,0h0s0,0,0,0l-1.2-.69c-.07-.04-.14-.06-.21-.06h0Zm-2.99-1.72c-.15,0-.29.08-.37.22-.12.21-.05.47.16.59l1.49.86c.07.04.14.06.21.06.15,0,.29-.08.37-.22.12-.21.05-.47-.16-.59l-.89-.51c-.32-.18-.6-.35-.6-.35-.07-.04-.14-.06-.21-.06h0Zm-2.99-1.72c-.15,0-.29.08-.37.22-.12.21-.05.47.16.59l1.49.86c.07.04.14.06.21.06.15,0,.29-.08.37-.22.12-.21.05-.47-.16-.59,0,0-.42-.24-.82-.47l-.68-.39c-.07-.04-.14-.06-.21-.06h0Z" style="fill: #b33eff; stroke-width: 0px;"></path>
          </g>
          <path d="m324.51,168.56c0,.96-.68,1.34-1.51.86-.84-.48-1.51-1.65-1.51-2.61s.68-1.34,1.51-.86c.84.48,1.51,1.65,1.51,2.61Z" style="fill: #2f00eb; stroke-width: 0px;"></path>
          <path d="m319.74,165.9c0,.96-.68,1.34-1.51.86-.84-.48-1.51-1.65-1.51-2.61s.68-1.34,1.51-.86c.84.48,1.51,1.65,1.51,2.61Z" style="fill: #674dff; stroke-width: 0px;"></path>
          <path d="m314.93,163.18c0,.96-.68,1.34-1.51.86-.84-.48-1.51-1.65-1.51-2.61s.68-1.34,1.51-.86c.84.48,1.51,1.65,1.51,2.61Z" style="fill: #53d6e2; stroke-width: 0px;"></path>
          <polygon points="346.5 182.87 354.97 187.75 354.97 185.45 346.5 180.56 346.5 182.87" style="fill: #b33eff; stroke-width: 0px;"></polygon>
          <polygon points="335.72 176.55 344.18 181.43 344.18 179.13 335.72 174.24 335.72 176.55" style="fill: #b33eff; stroke-width: 0px;"></polygon>
          <polygon points="332.25 223.83 312.13 212.09 312.13 198.61 332.25 210.35 332.25 223.83" style="fill: #b33eff; stroke-width: 0px;"></polygon>
          <g>
            <polygon points="332.22 228.26 312.22 216.58 312.22 214.2 332.22 225.87 332.22 228.26" style="fill: #fff; stroke-width: 0px;"></polygon>
            <polygon points="332.22 230.95 312.22 219.27 312.22 218.19 332.22 229.86 332.22 230.95" style="fill: #fff; stroke-width: 0px;"></polygon>
            <polygon points="332.22 233.21 312.22 221.54 312.22 220.45 332.22 232.13 332.22 233.21" style="fill: #fff; stroke-width: 0px;"></polygon>
            <polygon points="332.22 235.48 312.22 223.8 312.22 222.72 332.22 234.39 332.22 235.48" style="fill: #fff; stroke-width: 0px;"></polygon>
          </g>
          <polygon points="354.62 237.11 334.5 225.37 334.5 211.89 354.62 223.63 354.62 237.11" style="fill: #b33eff; stroke-width: 0px;"></polygon>
          <g>
            <polygon points="354.59 241.53 334.58 229.86 334.58 227.47 354.59 239.15 354.59 241.53" style="fill: #fff; stroke-width: 0px;"></polygon>
            <polygon points="354.59 244.22 334.58 232.55 334.58 231.46 354.59 243.14 354.59 244.22" style="fill: #fff; stroke-width: 0px;"></polygon>
            <polygon points="354.59 246.49 334.58 234.81 334.58 233.73 354.59 245.4 354.59 246.49" style="fill: #fff; stroke-width: 0px;"></polygon>
            <polygon points="354.59 248.75 334.58 237.08 334.58 235.99 354.59 247.67 354.59 248.75" style="fill: #fff; stroke-width: 0px;"></polygon>
          </g>
          <g>
            <polygon points="345.84 196.28 322.32 182.59 322.32 180.47 345.84 194.16 345.84 196.28" style="fill: #fff; stroke-width: 0px;"></polygon>
            <polygon points="350.98 202.01 316.54 181.97 316.54 181 350.98 201.05 350.98 202.01" style="fill: #fff; stroke-width: 0px;"></polygon>
          </g>
          <path d="m340.22,206.85l-12.99-7.47c-.91-.52-1.65-1.95-1.65-3.16v-1.79c0-1.21.74-1.77,1.65-1.25l12.99,7.47c.91.52,1.65,1.95,1.65,3.16v1.79c0,1.21-.74,1.77-1.65,1.25Z" style="fill: #2f00eb; stroke-width: 0px;"></path>
          <path d="m328.46,238.93v7.66l8.61,4.97v-7.66l-8.61-4.97Zm8.06,11.68l-7.5-4.33v-6.4l7.5,4.33v6.4Zm-2.41-5.78l-1.34,1.79-1.07-1.33-2.13.66,6.4,3.7-1.86-4.83Zm-2.93-.62c.48.27.86.05.86-.49s-.39-1.21-.86-1.48c-.48-.27-.86-.05-.86.49s.39,1.21.86,1.48Z" style="fill: #fff; stroke-width: 0px;"></path>
        </g>
        <g>
          <path d="m280.66,294.25l-25.88-14.94c-2.92-1.69-5.29-6.21-5.29-10.1v-68.93c0-1.98-1.63-2.42-.64-3.13.04-.03,2.31-1.06,2.35-1.08,1.06-.41,2.2-.59,3.57.21l25.88,14.94c2.92,1.69,5.29,6.21,5.29,10.1v68.93c0,2.07-.67,3.54-1.73,4.22-.06.04-2.8,1.34-2.87,1.37-.94.31.59-.85-.68-1.59Z" style="fill: #390082; stroke-width: 0px;"></path>
          <path d="m280.43,211.31l-25.88-14.94c-1.38-.8,24.45,15.42,24.45,15.42,2.92,1.69,5.29,6.21,5.29,10.1,0,0,1.43,70.52,1.43,68.45v-68.93c0-3.89-2.37-8.41-5.29-10.1Z" style="fill: #6400cb; stroke-width: 0px;"></path>
          <path d="m278.65,295.17l-25.88-14.94c-2.92-1.69-5.29-6.21-5.29-10.1v-68.93c0-3.89,2.37-5.68,5.29-4l25.88,14.94c2.92,1.69,5.29,6.21,5.29,10.1v68.93c0,3.89-2.37,5.68-5.29,4Z" style="fill: url(#Dégradé_sans_nom_28-10); stroke-width: 0px;"></path>
          <path d="m278.19,295.42l-25.88-14.94c-2.92-1.69-5.29-6.21-5.29-10.1v-68.93c0-3.89,2.37-5.68,5.29-4l25.88,14.94c2.92,1.69,5.29,6.21,5.29,10.1v68.93c0,3.89-2.37,5.68-5.29,4Z" style="fill: #1a0044; stroke-width: 0px;"></path>
          <path d="m247.74,270.83v-69.01c0-3.41,2.07-4.98,4.63-3.5l25.75,14.86c2.56,1.48,4.63,5.44,4.63,8.85v69.01c0,3.41-2.07,4.98-4.63,3.5l-25.75-14.86c-2.56-1.48-4.63-5.44-4.63-8.85Z" style="fill: #1a0044; stroke-width: 0px;"></path>
          <path d="m248.77,271.25v-68.66c0-2.86,1.74-4.17,3.88-2.93l25.2,14.55c2.14,1.24,3.88,4.56,3.88,7.41v68.66c0,2.86-1.74,4.17-3.88,2.93l-25.2-14.55c-2.14-1.24-3.88-4.56-3.88-7.41Z" style="fill: #1a0044; stroke-width: 0px;"></path>
          <path d="m252.95,200.42c-2.02-1.17-3.66-.23-3.66,2.08v69.44c0,2.32,1.64,5.14,3.66,6.31l24.61,14.21c2.02,1.17,3.66.23,3.66-2.08v-69.44c0-2.32-1.64-5.14-3.66-6.31l-24.61-14.21Z" style="fill: #1a0044; stroke-width: 0px;"></path>
          <path d="m275.59,217.98l3.27,1.89c.12.07.23.01.23-.13s-.1-.32-.23-.39l-3.27-1.89c-.12-.07-.23-.01-.23.13s.1.32.23.39Zm3.27,2.53l-3.27-1.89c-.12-.07-.23-.01-.23.13s.1.32.23.39l3.27,1.89c.12.07.23.01.23-.13s-.1-.32-.23-.39Zm0,1.16l-3.27-1.89c-.12-.07-.23-.01-.23.13s.1.32.23.39l3.27,1.89c.12.07.23.01.23-.13s-.1-.32-.23-.39Z" style="fill: #fff; stroke-width: 0px;"></path>
        </g>
        <polygon points="279.87 248.38 250.75 231.62 250.75 207.89 279.87 224.65 279.87 248.38" style="fill: url(#Dégradé_sans_nom_15-4); stroke-width: 0px;"></polygon>
        <g style="mix-blend-mode: screen; opacity: .5;">
          <path d="m251.19,261.23c-.24,0-.43.19-.43.43v1.72c0,.24.19.43.43.43s.43-.19.43-.43v-1.72c0-.24-.19-.43-.43-.43h0Zm0,3.45c-.24,0-.43.19-.43.43v1.72c0,.24.19.43.43.43s.43-.19.43-.43v-1.72c0-.24-.19-.43-.43-.43h0Zm0,3.45c-.24,0-.43.19-.43.43v1.72c0,.24.19.43.43.43s.43-.19.43-.43v-1.72c0-.24-.19-.43-.43-.43h0Zm0,3.45c-.24,0-.43.19-.43.43v1.61h0s0,0,0,0h0s0,0,0,0h0s0,0,0,0h0s0,0,0,0c.01,0,.09.05.09.05.07.04.14.06.21.06.11,0,.21-.04.29-.11h.26v-1.61c0-.24-.19-.43-.43-.43h0Zm1.37,2.15c-.15,0-.29.08-.37.22-.12.21-.05.47.16.59l1.49.86c.07.04.14.06.21.06.15,0,.29-.08.37-.22.12-.21.05-.47-.16-.59l-1.49-.86c-.07-.04-.14-.06-.21-.06h0Zm2.99,1.72c-.15,0-.29.08-.37.22-.12.21-.05.47.16.59l1.49.86c.07.04.14.06.21.06.15,0,.29-.08.37-.22.12-.21.05-.47-.16-.59l-1.49-.86c-.07-.04-.14-.06-.21-.06h0Zm2.99,1.72c-.15,0-.29.08-.37.22-.12.21-.05.47.16.59,0,0,.82.47,1.25.72h0s0,0,0,0h0s0,0,0,0h0s0,0,0,0h0s0,0,0,0h0s0,0,.01,0h0s0,0,0,0h0s0,0,0,0h0s0,0,0,0h0s0,0,0,0h0s0,0,0,0l.19.11c.07.04.14.06.21.06.15,0,.29-.08.37-.22.12-.21.05-.47-.16-.59l-1.49-.86c-.07-.04-.14-.06-.21-.06h0Zm2.99,1.72c-.15,0-.29.08-.37.22-.12.21-.05.47.16.59l1.49.86c.07.04.14.06.21.06.15,0,.29-.08.37-.22.12-.21.05-.47-.16-.59l-1.49-.86c-.07-.04-.14-.06-.21-.06h0Zm2.99,1.72c-.15,0-.29.08-.37.22-.12.21-.05.47.16.59,0,0,.29.16.61.35h0s.01,0,.02.01h0s0,0,0,0h0s0,0,0,0h0s0,0,0,0l.86.49c.07.04.14.06.21.06.15,0,.29-.08.37-.22.12-.21.05-.47-.16-.59l-1.49-.86c-.07-.04-.14-.06-.21-.06h0Zm2.99,1.72c-.15,0-.29.08-.37.22-.12.21-.05.47.16.59l1.49.86c.07.04.14.06.21.06.15,0,.29-.08.37-.22.12-.21.05-.47-.16-.59l-1.49-.86c-.07-.04-.14-.06-.21-.06h0Zm2.99,1.72c-.15,0-.29.08-.37.22-.12.21-.05.47.16.59l.43.25s0,0,.01,0h0c.44.25,1.05.61,1.05.61.07.04.14.06.21.06.15,0,.29-.08.37-.22.12-.21.05-.47-.16-.59l-1.49-.86c-.07-.04-.14-.06-.21-.06h0Zm2.99,1.72c-.15,0-.29.08-.37.22-.12.21-.05.47.16.59l1.49.86c.07.04.14.06.21.06.15,0,.29-.08.37-.22.12-.21.05-.47-.16-.59l-1.49-.86c-.07-.04-.14-.06-.21-.06h0Zm2.99,1.72c-.15,0-.29.08-.37.22-.12.21-.05.47.16.59,0,0,.72.41,1.16.67l.33.19c.07.04.14.06.21.06.15,0,.29-.08.37-.22.12-.21.05-.47-.16-.59l-1.49-.86c-.07-.04-.14-.06-.21-.06h0Zm3,1.5c-.24,0-.43.19-.43.43v.12c-.01.06-.01.13,0,.19v.16l.86.5h0v-.99h0c-.01-.23-.2-.4-.43-.4h0Zm0-3.45c-.24,0-.43.19-.43.43v1.72c0,.24.19.43.43.43s.43-.19.43-.43v-1.72c0-.24-.19-.43-.43-.43h0Zm0-3.45c-.24,0-.43.19-.43.43v1.72c0,.24.19.43.43.43s.43-.19.43-.43v-1.72c0-.24-.19-.43-.43-.43h0Zm0-3.45c-.24,0-.43.19-.43.43v1.72c0,.24.19.43.43.43s.43-.19.43-.43v-1.72c0-.24-.19-.43-.43-.43h0Zm0-3.45c-.24,0-.43.19-.43.43v1.72c0,.24.19.43.43.43s.43-.19.43-.43v-1.72c0-.24-.19-.43-.43-.43h0Zm-2.21-1.67c-.15,0-.29.08-.37.22-.12.21-.05.47.16.59l1.49.86c.07.04.14.06.21.06.15,0,.29-.08.37-.22.12-.21.05-.47-.16-.59l-1.49-.86c-.07-.04-.14-.06-.21-.06h0Zm-2.99-1.72c-.15,0-.29.08-.37.22-.12.21-.05.47.16.59l1.49.86c.07.04.14.06.21.06.15,0,.29-.08.37-.22.12-.21.05-.47-.16-.59,0,0-.49-.28-.91-.52h0s0,0,0,0l-.58-.33c-.07-.04-.14-.06-.21-.06h0Zm-2.99-1.72c-.15,0-.29.08-.37.22-.12.21-.05.47.16.59l1.49.86c.07.04.14.06.21.06.15,0,.29-.08.37-.22.12-.21.05-.47-.16-.59l-.94-.54s0,0,0,0h0s0,0,0,0h0s0,0,0,0h0s0-.01-.01-.01h0s-.01,0-.02,0h0s-.02-.01-.03-.02h0c-.26-.15-.47-.27-.47-.27-.07-.04-.14-.06-.21-.06h0Zm-2.99-1.72c-.15,0-.29.08-.37.22-.12.21-.05.47.16.59l1.49.86c.07.04.14.06.21.06.15,0,.29-.08.37-.22.12-.21.05-.47-.16-.59l-.83-.48s0,0,0,0h0s0,0,0,0h0s0,0,0,0c-.01,0-.02-.01-.03-.02h0c-.32-.19-.61-.35-.61-.35-.07-.04-.14-.06-.21-.06h0Zm-2.99-1.72c-.15,0-.29.08-.37.22-.12.21-.05.47.16.59l1.49.86c.07.04.14.06.21.06.15,0,.29-.08.37-.22.12-.21.05-.47-.16-.59l-1.49-.86c-.07-.04-.14-.06-.21-.06h0Zm-2.99-1.72c-.15,0-.29.08-.37.22-.12.21-.05.47.16.59l1.49.86c.07.04.14.06.21.06.15,0,.29-.08.37-.22.12-.21.05-.47-.16-.59,0,0-.54-.31-.97-.56l-.53-.3c-.07-.04-.14-.06-.21-.06h0Zm-2.99-1.72c-.15,0-.29.08-.37.22-.12.21-.05.47.16.59l1.49.86c.07.04.14.06.21.06.15,0,.29-.08.37-.22.12-.21.05-.47-.16-.59l-1.5-.86c-.07-.04-.14-.06-.21-.06h0Zm-2.99-1.72c-.15,0-.29.08-.37.22-.12.21-.05.47.16.59l1.49.86c.07.04.14.06.21.06.15,0,.29-.08.37-.22.12-.21.05-.47-.16-.59,0,0-.2-.12-.45-.26h0s0,0,0,0h-.02s0-.01,0-.01h0s0,0,0,0h0s-1.01-.58-1.01-.58c-.07-.04-.14-.06-.21-.06h0Zm-2.99-1.72c-.15,0-.29.08-.37.22-.12.21-.05.47.16.59l1.49.86c.07.04.14.06.21.06.15,0,.29-.08.37-.22.12-.21.05-.47-.16-.59l-1.49-.86c-.07-.04-.14-.06-.21-.06h0Zm-2.59-1.56v.99h0v.73c0,.24.19.43.43.43s.43-.19.43-.43v-.23h.02c.07.05.14.07.21.07.15,0,.29-.08.37-.22.12-.21.05-.47-.16-.59,0,0-.2-.12-.45-.26h0l-.86-.5h0Z" style="fill: #b33eff; stroke-width: 0px;"></path>
        </g>
        <path d="m260.64,210.26c0,.73-.51,1.02-1.15.65-.63-.37-1.15-1.25-1.15-1.98s.51-1.02,1.15-.65c.63.37,1.15,1.25,1.15,1.98Z" style="fill: #2f00eb; stroke-width: 0px;"></path>
        <path d="m257.02,208.24c0,.73-.51,1.02-1.15.65-.63-.37-1.15-1.25-1.15-1.98s.51-1.02,1.15-.65c.63.37,1.15,1.25,1.15,1.98Z" style="fill: #674dff; stroke-width: 0px;"></path>
        <path d="m253.38,206.18c0,.73-.51,1.02-1.15.65-.63-.37-1.15-1.25-1.15-1.98s.51-1.02,1.15-.65c.63.37,1.15,1.25,1.15,1.98Z" style="fill: url(#New_Gradient_Swatch_copy_7); stroke-width: 0px;"></path>
        <polygon points="279.81 261.03 250.81 244.14 250.81 234.15 279.81 251.04 279.81 261.03" style="fill: #b33eff; stroke-width: 0px;"></polygon>
        <g>
          <polygon points="279.78 265.04 250.9 248.23 250.9 246.06 279.78 262.87 279.78 265.04" style="fill: #fff; stroke-width: 0px;"></polygon>
          <polygon points="279.78 267.55 250.9 250.74 250.9 249.98 279.78 266.8 279.78 267.55" style="fill: #fff; stroke-width: 0px;"></polygon>
          <polygon points="279.78 269.59 250.9 252.78 250.9 252.03 279.78 268.84 279.78 269.59" style="fill: #fff; stroke-width: 0px;"></polygon>
          <polygon points="279.78 271.63 250.9 254.82 250.9 254.07 279.78 270.88 279.78 271.63" style="fill: #fff; stroke-width: 0px;"></polygon>
        </g>
        <g>
          <polygon points="272.57 228.19 258.4 219.96 258.4 218.1 272.57 226.33 272.57 228.19" style="fill: #fff; stroke-width: 0px;"></polygon>
          <polygon points="277.07 233.2 253.33 219.41 253.33 218.56 277.07 232.36 277.07 233.2" style="fill: #fff; stroke-width: 0px;"></polygon>
        </g>
        <path d="m270.93,239.36l-11.37-6.54c-.8-.46-1.45-1.7-1.45-2.76v-1.56c0-1.06.65-1.55,1.45-1.09l11.37,6.54c.8.46,1.45,1.7,1.45,2.76v1.56c0,1.06-.65,1.55-1.45,1.09Z" style="fill: #2f00eb; stroke-width: 0px;"></path>
        <g>
          <g style="mix-blend-mode: multiply; opacity: .3;">
            <path d="m93.61,114.1c2.18-1.26,3.95-.25,3.95,2.25v16.92c0,2.5-1.77,5.55-3.95,6.81l-18.41,10.6c-2.18,1.26-4.82.11-4.82-2.39v-16.92c0-2.5,2.64-5.41,4.82-6.67l18.41-10.6Z" style="fill: url(#linear-gradient-5); opacity: 0; stroke-width: 0px;"></path>
            <path d="m94.58,114.7c2.19-1.26,3.96-.25,3.96,2.26v16.76c0,2.51-1.77,5.57-3.96,6.83l-18.43,10.61c-2.19,1.26-4.76.13-4.76-2.38v-16.76c0-2.51,2.57-5.44,4.76-6.71l18.43-10.61Z" style="fill: url(#linear-gradient-6); opacity: .09; stroke-width: 0px;"></path>
            <path d="m95.55,115.3c2.19-1.27,3.97-.25,3.97,2.27v16.6c0,2.52-1.78,5.59-3.97,6.85l-18.44,10.62c-2.19,1.27-4.69.14-4.69-2.38v-16.6c0-2.52,2.49-5.47,4.69-6.74l18.44-10.62Z" style="fill: url(#linear-gradient-7); opacity: .18; stroke-width: 0px;"></path>
            <path d="m96.51,115.9c2.2-1.27,3.99-.25,3.99,2.27v16.44c0,2.53-1.78,5.6-3.99,6.87l-18.46,10.62c-2.2,1.27-4.62.15-4.62-2.37v-16.44c0-2.53,2.42-5.5,4.62-6.77l18.46-10.62Z" style="fill: url(#linear-gradient-8); opacity: .27; stroke-width: 0px;"></path>
            <path d="m97.48,116.5c2.21-1.27,4-.25,4,2.28v16.28c0,2.53-1.79,5.62-4,6.9l-18.47,10.63c-2.21,1.27-4.55.17-4.55-2.37v-16.28c0-2.53,2.35-5.53,4.55-6.81l18.47-10.63Z" style="fill: url(#linear-gradient-9); opacity: .36; stroke-width: 0px;"></path>
            <path d="m98.44,117.1c2.22-1.28,4.01-.26,4.01,2.29v16.12c0,2.54-1.8,5.64-4.01,6.92l-18.48,10.64c-2.21,1.28-4.49.18-4.49-2.36v-16.12c0-2.54,2.27-5.56,4.49-6.84l18.48-10.64Z" style="fill: url(#linear-gradient-10); opacity: .45; stroke-width: 0px;"></path>
            <path d="m99.41,117.7c2.22-1.28,4.02-.26,4.02,2.29v15.96c0,2.55-1.8,5.66-4.02,6.94l-18.5,10.65c-2.22,1.28-4.42.19-4.42-2.36v-15.96c0-2.55,2.2-5.59,4.42-6.88l18.5-10.65Z" style="fill: url(#linear-gradient-11); opacity: .55; stroke-width: 0px;"></path>
            <path d="m100.38,118.3c2.23-1.29,4.04-.26,4.04,2.3v15.8c0,2.56-1.81,5.67-4.04,6.96l-18.51,10.66c-2.23,1.29-4.35.21-4.35-2.35v-15.8c0-2.56,2.12-5.62,4.35-6.91l18.51-10.66Z" style="fill: url(#linear-gradient-12); opacity: .64; stroke-width: 0px;"></path>
            <path d="m101.34,118.9c2.24-1.29,4.05-.26,4.05,2.31v15.64c0,2.57-1.81,5.69-4.05,6.98l-18.53,10.66c-2.24,1.29-4.29.22-4.29-2.35v-15.64c0-2.57,2.05-5.65,4.29-6.94l18.53-10.66Z" style="fill: url(#linear-gradient-13); opacity: .73; stroke-width: 0px;"></path>
            <path d="m102.31,119.5c2.24-1.29,4.06-.26,4.06,2.32v15.48c0,2.57-1.82,5.71-4.06,7l-18.54,10.67c-2.24,1.29-4.22.23-4.22-2.34v-15.48c0-2.57,1.98-5.68,4.22-6.98l18.54-10.67Z" style="fill: url(#linear-gradient-14); opacity: .82; stroke-width: 0px;"></path>
            <path d="m103.27,120.1c2.25-1.3,4.07-.26,4.07,2.32v15.32c0,2.58-1.82,5.73-4.07,7.03l-18.56,10.68c-2.25,1.3-4.15.25-4.15-2.33v-15.32c0-2.58,1.9-5.71,4.15-7.01l18.56-10.68Z" style="fill: url(#linear-gradient-15); opacity: .91; stroke-width: 0px;"></path>
            <path d="m104.24,120.7c2.26-1.3,4.09-.26,4.09,2.33v15.16c0,2.59-1.83,5.74-4.09,7.05l-18.57,10.69c-2.26,1.3-4.09.26-4.09-2.33v-15.16c0-2.59,1.83-5.74,4.09-7.05l18.57-10.69Z" style="fill: url(#linear-gradient-16); stroke-width: 0px;"></path>
          </g>
          <path d="m104.35,119.93c2.26-1.31,4.1-.26,4.1,2.34v17.48c0,2.6-1.84,5.76-4.1,7.07l-18.67,10.74c-2.26,1.31-4.1.26-4.1-2.34v-17.49c0-2.6,1.84-5.76,4.1-7.07l18.67-10.74Z" style="fill: url(#Dégradé_sans_nom_21); stroke-width: 0px;"></path>
          <path d="m85.69,130.67l18.67-10.74c2.26-1.31,4.1-.26,4.1,2.34v.4c0-2.6-1.84-3.64-4.1-2.34l-18.67,10.74c-2.26,1.31-4.1,4.47-4.1,7.07v-.4c0-2.6,1.84-5.76,4.1-7.07Z" style="fill: #b33eff; stroke-width: 0px;"></path>
          <path d="m87.96,136.92v13.2l14.82-8.56v-13.2l-14.82,8.56Zm.95.54l12.93-7.46v11.02l-12.93,7.46v-11.02Zm.95,9.39l11.03-6.37-3.68-1.14-1.84,2.29-2.31-3.09-3.2,8.31Zm9.72-11.94c0-.94-.66-1.32-1.48-.85s-1.48,1.62-1.48,2.56.66,1.32,1.48.85,1.48-1.62,1.48-2.56Z" style="fill: #fff; stroke-width: 0px;"></path>
        </g>
        <g>
          <g style="mix-blend-mode: multiply; opacity: .3;">
            <path d="m255.2,258.89c-2.18-1.26-3.95-.25-3.95,2.25v10.46c0,2.5,1.77,5.55,3.95,6.81l18.41,10.6c2.18,1.26,4.82.11,4.82-2.39v-10.46c0-2.5-2.64-5.41-4.82-6.67l-18.41-10.6Z" style="fill: url(#linear-gradient-17); opacity: 0; stroke-width: 0px;"></path>
            <path d="m254.24,259.49c-2.19-1.26-3.96-.25-3.96,2.26v10.3c0,2.51,1.77,5.57,3.96,6.83l18.43,10.61c2.19,1.26,4.76.13,4.76-2.38v-10.3c0-2.51-2.57-5.44-4.76-6.71l-18.43-10.61Z" style="fill: url(#linear-gradient-18); opacity: .09; stroke-width: 0px;"></path>
            <path d="m253.27,260.09c-2.19-1.27-3.97-.25-3.97,2.27v10.14c0,2.52,1.78,5.59,3.97,6.85l18.44,10.62c2.19,1.27,4.69.14,4.69-2.38v-10.14c0-2.52-2.49-5.47-4.69-6.74l-18.44-10.62Z" style="fill: url(#linear-gradient-19); opacity: .18; stroke-width: 0px;"></path>
            <path d="m252.31,260.69c-2.2-1.27-3.99-.25-3.99,2.27v9.98c0,2.53,1.78,5.6,3.99,6.87l18.46,10.62c2.2,1.27,4.62.15,4.62-2.37v-9.98c0-2.53-2.42-5.5-4.62-6.77l-18.46-10.62Z" style="fill: url(#linear-gradient-20); opacity: .27; stroke-width: 0px;"></path>
            <path d="m251.34,261.29c-2.21-1.27-4-.25-4,2.28v9.82c0,2.53,1.79,5.62,4,6.9l18.47,10.63c2.21,1.27,4.55.17,4.55-2.37v-9.82c0-2.53-2.35-5.53-4.55-6.81l-18.47-10.63Z" style="fill: url(#linear-gradient-21); opacity: .36; stroke-width: 0px;"></path>
            <path d="m250.38,261.89c-2.22-1.28-4.01-.26-4.01,2.29v9.66c0,2.54,1.8,5.64,4.01,6.92l18.48,10.64c2.22,1.28,4.49.18,4.49-2.36v-9.66c0-2.54-2.27-5.56-4.49-6.84l-18.48-10.64Z" style="fill: url(#linear-gradient-22); opacity: .45; stroke-width: 0px;"></path>
            <path d="m249.41,262.49c-2.22-1.28-4.02-.26-4.02,2.29v9.5c0,2.55,1.8,5.66,4.02,6.94l18.5,10.65c2.22,1.28,4.42.19,4.42-2.36v-9.5c0-2.55-2.2-5.59-4.42-6.88l-18.5-10.65Z" style="fill: url(#linear-gradient-23); opacity: .55; stroke-width: 0px;"></path>
            <path d="m248.44,263.09c-2.23-1.29-4.04-.26-4.04,2.3v9.34c0,2.56,1.81,5.67,4.04,6.96l18.51,10.66c2.23,1.29,4.35.21,4.35-2.35v-9.34c0-2.56-2.12-5.62-4.35-6.91l-18.51-10.66Z" style="fill: url(#linear-gradient-24); opacity: .64; stroke-width: 0px;"></path>
            <path d="m247.48,263.69c-2.24-1.29-4.05-.26-4.05,2.31v9.18c0,2.57,1.81,5.69,4.05,6.98l18.53,10.66c2.24,1.29,4.29.22,4.29-2.35v-9.18c0-2.57-2.05-5.65-4.29-6.94l-18.53-10.66Z" style="fill: url(#linear-gradient-25); opacity: .73; stroke-width: 0px;"></path>
            <path d="m246.51,264.29c-2.24-1.29-4.06-.26-4.06,2.32v9.02c0,2.57,1.82,5.71,4.06,7l18.54,10.67c2.24,1.29,4.22.23,4.22-2.34v-9.02c0-2.57-1.98-5.68-4.22-6.98l-18.54-10.67Z" style="fill: url(#linear-gradient-26); opacity: .82; stroke-width: 0px;"></path>
            <path d="m245.55,264.89c-2.25-1.3-4.07-.26-4.07,2.32v8.86c0,2.58,1.82,5.73,4.07,7.03l18.56,10.68c2.25,1.3,4.15.25,4.15-2.33v-8.86c0-2.58-1.9-5.71-4.15-7.01l-18.56-10.68Z" style="fill: url(#linear-gradient-27); opacity: .91; stroke-width: 0px;"></path>
            <path d="m244.58,265.49c-2.26-1.3-4.09-.26-4.09,2.33v8.7c0,2.59,1.83,5.74,4.09,7.05l18.57,10.69c2.26,1.3,4.09.26,4.09-2.33v-8.7c0-2.59-1.83-5.74-4.09-7.05l-18.57-10.69Z" style="fill: url(#linear-gradient-28); stroke-width: 0px;"></path>
          </g>
          <path d="m244.46,264.72c-2.26-1.31-4.1-.26-4.1,2.34v11.03c0,2.6,1.84,5.76,4.1,7.07l18.67,10.74c2.26,1.31,4.1.26,4.1-2.34v-11.03c0-2.6-1.84-5.76-4.1-7.07l-18.67-10.74Z" style="fill: url(#Dégradé_sans_nom_21-2); stroke-width: 0px;"></path>
          <path d="m263.13,275.46l-18.67-10.74c-2.26-1.31-4.1-.26-4.1,2.34v.4c0-2.6,1.84-3.64,4.1-2.34l18.67,10.74c2.26,1.31,4.1,4.47,4.1,7.07v-.4c0-2.6-1.84-5.76-4.1-7.07Z" style="fill: #b33eff; stroke-width: 0px;"></path>
          <path d="m246.41,269.82v12.54l14.08,8.13v-12.54l-14.08-8.13Zm13.18,19.12l-12.28-7.09v-10.47l12.28,7.09v10.47Zm-3.94-9.45l-2.2,2.93-1.75-2.17-3.49,1.09,10.48,6.05-3.04-7.9Zm-4.79-1.02c.78.45,1.41.09,1.41-.8s-.63-1.98-1.41-2.43c-.78-.45-1.41-.09-1.41.8s.63,1.98,1.41,2.43Z" style="fill: #fff; stroke-width: 0px;"></path>
        </g>
        <g>
          <path d="m138.2,61.34c2.26-1.31,4.1-.26,4.1,2.34v17.48c0,2.6-1.84,5.76-4.1,7.07l-18.67,10.74c-2.26,1.31-4.1.26-4.1-2.34v-17.49c0-2.6,1.84-5.76,4.1-7.07l18.67-10.74Z" style="fill: url(#Dégradé_sans_nom_22); stroke-width: 0px;"></path>
          <path d="m119.53,72.08l18.67-10.74c2.26-1.31,4.1-.26,4.1,2.34v.4c0-2.6-1.84-3.64-4.1-2.34l-18.67,10.74c-2.26,1.31-4.1,4.47-4.1,7.07v-.4c0-2.6,1.84-5.76,4.1-7.07Z" style="fill: #a6fbff; stroke-width: 0px;"></path>
          <path d="m128.68,82.4l1.39.79c-.39,1.4-.17,2.65.66,3.12.83.47,2.03.03,3.05-1.01l-1.66-.94,1.68-2.89,1.66.94c.39-1.4.17-2.65-.66-3.12-.83-.47-2.03-.03-3.05,1.01l-1.39-.79-1.68,2.89Zm-.26-4l-1.39-.79c.39-1.4.17-2.65-.66-3.12-.83-.47-2.03-.03-3.05,1.01l1.66.94-1.68,2.89-1.66-.94c-.39,1.4-.17,2.65.66,3.12.83.47,2.03.03,3.05-1.01l1.39.79,1.68-2.89Zm-6.43,10.89c-.42.73-.42,1.52,0,1.76l.58.33c.42.24,1.11-.16,1.54-.89l2.39-4.12c.36-.61.41-1.26.17-1.6l5.81-10.02,1.29-1.17,1.21-3.19-.95-.54-2.17,2.64-.36,1.7-5.81,10.02c-.42-.04-.96.34-1.31.95l-2.39,4.12Z" style="fill: #fff; stroke-width: 0px;"></path>
        </g>
        <g>
          <path d="m167.91,7.49c-2.26-1.31-4.1-.26-4.1,2.34v17.48c0,2.6,1.84,5.76,4.1,7.07l18.67,10.74c2.26,1.31,4.1.26,4.1-2.34v-17.49c0-2.6-1.84-5.76-4.1-7.07l-18.67-10.74Z" style="fill: url(#Dégradé_sans_nom_30); stroke-width: 0px;"></path>
          <path d="m186.57,18.24l-18.67-10.74c-2.26-1.31-4.1-.26-4.1,2.34v.4c0-2.6,1.84-3.64,4.1-2.34l18.67,10.74c2.26,1.31,4.1,4.47,4.1,7.07v-.4c0-2.6-1.84-5.76-4.1-7.07Z" style="fill: #8c33ff; stroke-width: 0px;"></path>
          <path d="m177.09,18.43c-4.01-2.32-7.28-.46-7.28,4.15s3.27,10.24,7.28,12.55c4.01,2.32,7.28.46,7.28-4.15s-3.26-10.24-7.28-12.55Zm3.81,4.94c0,.18.12.4.12.4,0,0-.66-.21-.83-.39-.17-.18.14-.3.14-.3,0,0-.42-.27-.45-.19-.02.08.21.28.21.28,0,0-.08,0-.17-.05-.09-.05-.48-.4-.5-.5-.02-.11-.24-.34-.24-.34,0,0,.13-.11.15-.14.02-.03.06-.04.02-.08-.03-.04-.33-.18-.33-.23s.14-.04.12-.09c-.02-.05-.35-.22-.38-.19-.02.03-.09.13-.13.13-.04,0-.1-.13-.15-.11-.06.02.09.19.09.23,0,.04-.01.16.02.2.03.04.25.1.24.17,0,.07-.07.1,0,.22.07.11.24.24.22.27-.02.03-.2-.02-.21.06-.01.09-.09.14-.09.14l.2.2s-.34,0-.29.06c.05.07.43.21.52.26.09.05.59.35.67.29.07-.06.16-.39.29-.22.13.16-.24.39-.49.31-.25-.08-.42-.2-.45-.2-.03,0,.1.16-.02.11-.13-.05-.38-.14-.4-.11-.02.03.57.51.61.83.05.32.07.53-.14.4-.21-.14-.79-.49-.9-.56-.11-.07-.24-.13-.25-.05-.01.07.09.33.06.46-.03.13-.12.28-.11.35,0,.07.1.11.09.23-.01.12-.02.2-.02.2,0,0,.07.04.18.08.1.05.22.12.26.24.04.13.12.16.21.16.09,0,.38.2.49.18.11-.02.23,0,.27,0,.04,0,.15-.08.16-.13.01-.05-.1-.2.03-.27.13-.07.51.02.5-.06,0-.08-.1-.26.09-.23.18.03.45.36.48.35.03-.01.21,0,.25-.01.05-.02.17-.12.33.18.16.3.3.65.5.82.2.17.29.22.35.35.06.12.11.14.15.22.03.07.09.19.06.22-.02.03-.02.08-.09.07-.07-.01-.33-.19-.42-.22-.09-.03-.14-.05-.11,0,.02.05.22.23.3.34.08.11.15.15.15.15l.03-.07s-.05-.11-.02-.13c.03-.02.09-.03.13.01s.1-.01.1-.03.06-.05.09-.04c.03,0,.07-.02.03-.08-.05-.06-.09-.1-.09-.16,0-.06.02-.11.09-.03.07.07.13.15.14.19.02.04.08.04.07-.01-.01-.05-.05-.14-.13-.21-.08-.07-.21-.21-.23-.26-.01-.05.05-.06-.07-.13-.12-.07-.28-.27-.31-.38-.03-.12-.05-.14-.11-.23-.07-.09-.16-.26-.09-.3.07-.04.18.14.31.33.13.19.42.47.49.56h0c.26.77.45,1.55.55,2.31,0,0-.01,0-.02,0-.19.06-.13.14-.12.21,0,.07-.03.22-.14.1-.11-.12-.32-.39-.42-.44-.1-.05-.17-.18-.21-.29-.03-.11-.25-.31-.35-.35-.1-.04-.17-.06-.27-.21-.1-.15-.21-.3-.19-.33.01-.03.21.11.22.04,0-.06-.1-.1-.13-.18-.03-.08-.05-.08-.08-.14-.03-.06-.05-.11-.01-.12.04-.01.08-.05.07-.08s-.1,0-.12-.05c-.03-.06-.06-.12-.14-.16,0,0,0,0,0,0,.02-.02.02-.04-.03-.08-.1-.07-.15-.05-.15-.03,0,.01.01.04.02.07-.03-.01-.07-.03-.11-.06-.11-.1-.15-.09-.24-.14-.1-.05-.11,0-.18-.03-.07-.04-.28-.22-.45-.29-.18-.06-.59-.18-.68-.16-.09.02-.15.02-.27-.1-.12-.12-.29-.11-.33-.19-.05-.08-.13-.21-.13-.21h-.11s-.07.2-.34.21c-.27.01-.27.21-.3.38-.02.17-.13.32-.39.29-.26-.03-.37.34-.51.36-.15.02-.51.37-.39.67.13.3.22.61.09.93-.13.32-.23.79.53,1.84.75,1.05,1.03,1.34,1.03,1.34,0,0,.42-.07.72.23.3.3.75.28.98.36.23.08.5.49.57.66.07.17.69.09.64.66-.02.3-.07.46-.09.58-1.08.45-2.49.3-4.03-.58.09-.08.21-.15.31-.25.2-.18.11-.42.03-.69-.08-.26-.13-.14-.29-.4-.16-.26-.32-.53-.55-.66-.23-.13-.53-.59-.61-.72-.08-.12-.29-.39-.37-.66-.08-.27-.5-.89-.59-1.05-.09-.16-.36-.2-.69-.68-.33-.48-.07-.39-.45-.7-.39-.3-.51-.3-.72-.45-.21-.15-.34-.48-.51-.57-.17-.1-.55.13-.64.17-.09.04-.11-.02-.26-.23-.06-.08-.11-.1-.17-.11-.12-.33-.22-.66-.31-.99.04-.09.07-.16.07-.19,0-.08-.06-.13-.17-.18-.19-.8-.3-1.6-.3-2.36,0-.04,0-.08,0-.11.07.12.14.28.23.46.17.38.05.58.05.58,0,0,.29.19.41.08.12-.11-.09-.93-.04-1.1.05-.17.66-.15.71-.23.05-.08-.03-.35.11-.64.14-.29.52.05.55.07.03.02,0-.12-.06-.28-.07-.16.04-.2.14-.21.11,0,.5.04.5.04,0,0-.11.04-.11.19,0,.15.14.07.33.06.18,0,.5.04.5.04l-.08-.19s-.18-.05-.34-.17c-.15-.12-.16-.23-.2-.45-.04-.22-.66-.29-.66-.29,0,0,.2-.1.35-.11.15,0,.76.41.87.47.11.06.24-.1.41,0,.18.09.21-.06.18-.2-.03-.14-.3-.41-.64-.9-.34-.49-.53-1.06-.53-1.06,0,0-.11.16-.22.19-.1.03-.23-.09-.35-.32,1.09-.47,2.51-.31,4.07.59,1.43.83,2.75,2.16,3.81,3.71Zm-3.09-.44c-.08-.17.13-.1.21-.05.08.05.1-.02.15-.04.05-.02.33.17.4.24.08.07.1.24.08.25-.03.01-.03.14-.03.22s-.15.08-.28.01c-.13-.06-.44-.1-.5-.27-.05-.15.03-.06.07-.09s-.03-.11-.1-.29Zm-2.32-3.76c.21-.09.52.27.72.42.2.14.33.15.68.28.35.13.39.33.39.47,0,.14-.7-.01-1.06-.26-.36-.25-.87-.84-.72-.91Z" style="fill: #fff; stroke-width: 0px;"></path>
        </g>
        <g>
          <path d="m295.71,13.69c-2.26-1.31-4.1-.26-4.1,2.34v17.48c0,2.6,1.84,5.76,4.1,7.07l18.67,10.74c2.26,1.31,4.1.26,4.1-2.34v-17.49c0-2.6-1.84-5.76-4.1-7.07l-18.67-10.74Z" style="fill: url(#Dégradé_sans_nom_22-2); stroke-width: 0px;"></path>
          <path d="m314.38,24.43l-18.67-10.74c-2.26-1.31-4.1-.26-4.1,2.34v.4c0-2.6,1.84-3.64,4.1-2.34l18.67,10.74c2.26,1.31,4.1,4.47,4.1,7.07v-.4c0-2.6-1.84-5.76-4.1-7.07Z" style="fill: #a6fbff; stroke-width: 0px;"></path>
          <path d="m309.94,31.72l-3.5-6.03c-.54-.93-1.27-1.7-2.04-2.15l-4.93-2.85v17.31l11.31,6.53v-9.99c0-.88-.3-1.89-.84-2.83Zm-3.87-5.14l2.91,5.02-2.91-1.68v-3.34Zm3.77,16.33l-9.43-5.44v-15.14l4.12,2.38c.33.19.59.64.59,1.02v4.73l4.12,2.38c.33.19.59.64.59,1.02v9.06Zm-8.48-10.31l7.54,4.35v-1.08l-7.54-4.35v1.08Zm0-2.16l7.54,4.35v-1.08l-7.54-4.35v1.08Zm0,4.33l7.54,4.35v-1.08l-7.54-4.35v1.08Z" style="fill: #fff; stroke-width: 0px;"></path>
        </g>
        <g>
          <path d="m59.04,42.62c2.26-1.31,4.1-.26,4.1,2.34v17.48c0,2.6-1.84,5.76-4.1,7.07l-18.67,10.74c-2.26,1.31-4.1.26-4.1-2.34v-17.49c0-2.6,1.84-5.76,4.1-7.07l18.67-10.74Z" style="fill: url(#Dégradé_sans_nom_21-3); stroke-width: 0px;"></path>
          <path d="m40.38,53.36l18.67-10.74c2.26-1.31,4.1-.26,4.1,2.34v.4c0-2.6-1.84-3.64-4.1-2.34l-18.67,10.74c-2.26,1.31-4.1,4.47-4.1,7.07v-.4c0-2.6,1.84-5.76,4.1-7.07Z" style="fill: #b33eff; stroke-width: 0px;"></path>
          <path d="m41.64,60.08v11.26c0,.98.69,1.38,1.55.88.18-.11,13.88-8.02,13.88-8.02.61-.35,1.1-1.2,1.1-1.89v-9.95c0-.68-.48-.96-1.08-.61l-.47.27v-1.14c0-.68-.48-.96-1.08-.61l-5.08,2.93c-.59.34-1.08,1.17-1.08,1.86v.54s-7.75,4.47-7.75,4.47Zm1.03.59l6.72-3.88,1.03-.6v-1.19s0-.54,0-.54c0-.03.02-.06.04-.07l5.08-2.93s.04,0,.04.02v1.14s-3.06,1.76-3.06,1.76c-.59.34-1.08,1.17-1.08,1.86v.54s-7.75,4.47-7.75,4.47v6.7s0,1,0,1v1.19c0,.33-.23.73-.52.89-.28.16-.52.03-.52-.29v-10.08Z" style="fill: #fff; stroke-width: 0px;"></path>
        </g>
      </g>
    </g>
  </g>
</svg>
